<svg viewBox="0 0 16 16" fill="none" xmlns="http://www.w3.org/2000/svg">
  <g id="ArrowSquareOut">
    <path id="Vector (Stroke)" fill-rule="evenodd" clip-rule="evenodd" d="M9.25 2.5C9.25 2.22386 9.47386 2 9.75 2H13.5C13.7761 2 14 2.22386 14 2.5V6.25C14 6.52614 13.7761 6.75 13.5 6.75C13.2239 6.75 13 6.52614 13 6.25V3H9.75C9.47386 3 9.25 2.77614 9.25 2.5Z" fill="currentColor"/>
    <path id="Vector (Stroke)_2" fill-rule="evenodd" clip-rule="evenodd" d="M13.8536 2.14645C14.0488 2.34171 14.0488 2.65829 13.8536 2.85355L9.35355 7.35355C9.15829 7.54882 8.84171 7.54882 8.64645 7.35355C8.45118 7.15829 8.45118 6.84171 8.64645 6.64645L13.1464 2.14645C13.3417 1.95118 13.6583 1.95118 13.8536 2.14645Z" fill="currentColor"/>
    <path id="Vector (Stroke)_3" fill-rule="evenodd" clip-rule="evenodd" d="M2.29289 4.29289C2.48043 4.10536 2.73478 4 3 4H7C7.27614 4 7.5 4.22386 7.5 4.5C7.5 4.77614 7.27614 5 7 5L3 5L3 13H11V9C11 8.72386 11.2239 8.5 11.5 8.5C11.7761 8.5 12 8.72386 12 9V13C12 13.2652 11.8946 13.5196 11.7071 13.7071C11.5196 13.8946 11.2652 14 11 14H3C2.73478 14 2.48043 13.8946 2.29289 13.7071C2.10536 13.5196 2 13.2652 2 13V5C2 4.73478 2.10536 4.48043 2.29289 4.29289Z" fill="currentColor"/>
  </g>
</svg>
