<svg xmlns="http://www.w3.org/2000/svg" width="16" height="17" viewBox="0 0 16 17" fill="none">
  <path fill-rule="evenodd" clip-rule="evenodd" d="M14.0117 3.23145C14.2879 3.23145 14.5117 3.4553 14.5117 3.73145V6.73145C14.5117 7.00759 14.2879 7.23145 14.0117 7.23145H11.0117C10.7356 7.23145 10.5117 7.00759 10.5117 6.73145C10.5117 6.4553 10.7356 6.23145 11.0117 6.23145H13.5117V3.73145C13.5117 3.4553 13.7356 3.23145 14.0117 3.23145Z" fill="currentColor"/>
  <path fill-rule="evenodd" clip-rule="evenodd" d="M8.97305 3.59637C8.00303 3.40312 6.99749 3.5019 6.08362 3.88021C5.16975 4.25853 4.38862 4.89939 3.83903 5.72173C3.28944 6.54406 2.99609 7.51092 2.99609 8.5C2.99609 9.48908 3.28944 10.4559 3.83903 11.2783C4.38862 12.1006 5.16975 12.7415 6.08362 13.1198C6.99749 13.4981 8.00303 13.5969 8.97305 13.4036C9.94306 13.2104 10.834 12.7338 11.5331 12.0341C11.7283 11.8388 12.0448 11.8386 12.2402 12.0338C12.4355 12.229 12.4356 12.5456 12.2405 12.7409C11.4015 13.5805 10.3325 14.1524 9.16844 14.3844C8.00442 14.6163 6.79777 14.4977 5.70112 14.0437C4.60448 13.5898 3.66712 12.8207 3.00762 11.8339C2.34811 10.8471 1.99609 9.6869 1.99609 8.5C1.99609 7.31311 2.34811 6.15287 3.00762 5.16607C3.66712 4.17927 4.60448 3.41024 5.70112 2.95626C6.79777 2.50228 8.00442 2.38374 9.16844 2.61565C10.3323 2.84753 11.4013 3.41937 12.2402 4.25882C12.2403 4.25891 12.2401 4.25873 12.2402 4.25882L14.3648 6.37718C14.5603 6.57215 14.5608 6.88874 14.3658 7.08428C14.1709 7.27983 13.8543 7.2803 13.6587 7.08533L11.5331 4.96591C10.834 4.26624 9.94306 3.78963 8.97305 3.59637Z" fill="currentColor"/>
</svg>