<svg width="80" height="80" viewBox="0 0 80 80" fill="none" xmlns="http://www.w3.org/2000/svg">
<path fill-rule="evenodd" clip-rule="evenodd" d="M7.5 17.5C7.5 14.7386 9.73858 12.5 12.5 12.5H67.5C70.2614 12.5 72.5 14.7386 72.5 17.5V62.5C72.5 65.2614 70.2614 67.5 67.5 67.5H12.5C9.73858 67.5 7.5 65.2614 7.5 62.5V17.5ZM67.5 17.5H12.5V62.5H67.5V17.5Z" fill="currentColor"/>
<path fill-rule="evenodd" clip-rule="evenodd" d="M21.25 30C21.25 28.6193 22.3693 27.5 23.75 27.5H56.25C57.6307 27.5 58.75 28.6193 58.75 30C58.75 31.3807 57.6307 32.5 56.25 32.5H23.75C22.3693 32.5 21.25 31.3807 21.25 30Z" fill="currentColor"/>
<path fill-rule="evenodd" clip-rule="evenodd" d="M21.25 40C21.25 38.6193 22.3693 37.5 23.75 37.5H56.25C57.6307 37.5 58.75 38.6193 58.75 40C58.75 41.3807 57.6307 42.5 56.25 42.5H23.75C22.3693 42.5 21.25 41.3807 21.25 40Z" fill="currentColor"/>
<path fill-rule="evenodd" clip-rule="evenodd" d="M21.25 50C21.25 48.6193 22.3693 47.5 23.75 47.5H56.25C57.6307 47.5 58.75 48.6193 58.75 50C58.75 51.3807 57.6307 52.5 56.25 52.5H23.75C22.3693 52.5 21.25 51.3807 21.25 50Z" fill="currentColor"/>
</svg>
