<svg width="16" height="17" viewBox="0 0 16 17" fill="none" xmlns="http://www.w3.org/2000/svg">
<g id="Nut">
<path id="Vector (Stroke)" fill-rule="evenodd" clip-rule="evenodd" d="M7.50851 1.70314C7.65808 1.61732 7.82753 1.57214 8 1.57214C8.17247 1.57214 8.34192 1.61732 8.49149 1.70314L13.7407 4.67142C13.8945 4.75879 14.0226 4.88519 14.112 5.03786C14.2015 5.19053 14.249 5.36409 14.25 5.54102L14.25 5.54371L14.25 11.4562H13.75L14.25 11.4589C14.249 11.6358 14.2015 11.8094 14.112 11.962C14.0226 12.1147 13.8945 12.2411 13.7407 12.3285L8.49152 15.2968C8.34195 15.3826 8.17248 15.4278 8 15.4278C7.82752 15.4278 7.65805 15.3826 7.50848 15.2968L2.26014 12.3289L2.25934 12.3285C2.10549 12.2411 1.97739 12.1147 1.88797 11.962C1.79854 11.8094 1.75096 11.6358 1.75001 11.4589L1.75 11.4562V5.54102C1.75095 5.36409 1.79854 5.19054 1.88797 5.03786C1.97739 4.88519 2.10549 4.75879 2.25934 4.67142L2.26014 4.67097L7.50851 1.70314ZM13.25 11.4538V5.54612C13.25 5.54512 13.2497 5.54414 13.2492 5.54327C13.2488 5.54271 13.2484 5.54221 13.2479 5.54178C13.2476 5.5415 13.2473 5.54125 13.2469 5.54103C13.2469 5.54102 13.2469 5.54104 13.2469 5.54103L8 2.57403L2.75316 5.54099C2.75313 5.541 2.75318 5.54098 2.75316 5.54099C2.75223 5.54153 2.75139 5.54234 2.75085 5.54327C2.75034 5.54414 2.75005 5.54512 2.75 5.54612V11.4538C2.75005 11.4548 2.75034 11.4558 2.75085 11.4566C2.75139 11.4576 2.75215 11.4583 2.75307 11.4589C2.75304 11.4589 2.7531 11.4589 2.75307 11.4589L8 14.4259L13.2468 11.4589C13.2468 11.4589 13.2469 11.4589 13.2468 11.4589C13.2478 11.4584 13.2486 11.4576 13.2492 11.4566C13.2497 11.4558 13.25 11.4548 13.25 11.4538Z" fill="currentColor"/>
<path id="Vector (Stroke)_2" fill-rule="evenodd" clip-rule="evenodd" d="M8 6.75C7.0335 6.75 6.25 7.5335 6.25 8.5C6.25 9.4665 7.0335 10.25 8 10.25C8.9665 10.25 9.75 9.4665 9.75 8.5C9.75 7.5335 8.9665 6.75 8 6.75ZM5.25 8.5C5.25 6.98122 6.48122 5.75 8 5.75C9.51878 5.75 10.75 6.98122 10.75 8.5C10.75 10.0188 9.51878 11.25 8 11.25C6.48122 11.25 5.25 10.0188 5.25 8.5Z" fill="currentColor"/>
</g>
</svg>
