<svg xmlns="http://www.w3.org/2000/svg" width="80" height="81" viewBox="0 0 80 81" fill="none">
<path fill-rule="evenodd" clip-rule="evenodd" d="M10 18C10 16.6193 11.1193 15.5 12.5 15.5H67.5C68.8807 15.5 70 16.6193 70 18C70 19.3807 68.8807 20.5 67.5 20.5H12.5C11.1193 20.5 10 19.3807 10 18Z" fill="currentColor"/>
<path fill-rule="evenodd" clip-rule="evenodd" d="M32.5 30.5C33.8807 30.5 35 31.6193 35 33V53C35 54.3807 33.8807 55.5 32.5 55.5C31.1193 55.5 30 54.3807 30 53V33C30 31.6193 31.1193 30.5 32.5 30.5Z" fill="currentColor"/>
<path fill-rule="evenodd" clip-rule="evenodd" d="M47.5 30.5C48.8807 30.5 50 31.6193 50 33V53C50 54.3807 48.8807 55.5 47.5 55.5C46.1193 55.5 45 54.3807 45 53V33C45 31.6193 46.1193 30.5 47.5 30.5Z" fill="currentColor"/>
<path fill-rule="evenodd" clip-rule="evenodd" d="M17.5 15.5C18.8807 15.5 20 16.6193 20 18V65.5H60V18C60 16.6193 61.1193 15.5 62.5 15.5C63.8807 15.5 65 16.6193 65 18V65.5C65 66.8261 64.4732 68.0978 63.5355 69.0355C62.5978 69.9732 61.3261 70.5 60 70.5H20C18.6739 70.5 17.4022 69.9732 16.4645 69.0355C15.5268 68.0979 15 66.8261 15 65.5V18C15 16.6193 16.1193 15.5 17.5 15.5Z" fill="currentColor"/>
<path fill-rule="evenodd" clip-rule="evenodd" d="M27.1967 7.6967C28.6032 6.29018 30.5109 5.5 32.5 5.5H47.5C49.4891 5.5 51.3968 6.29018 52.8033 7.6967C54.2098 9.10322 55 11.0109 55 13V18C55 19.3807 53.8807 20.5 52.5 20.5C51.1193 20.5 50 19.3807 50 18V13C50 12.337 49.7366 11.7011 49.2678 11.2322C48.7989 10.7634 48.163 10.5 47.5 10.5H32.5C31.837 10.5 31.2011 10.7634 30.7322 11.2322C30.2634 11.7011 30 12.337 30 13V18C30 19.3807 28.8807 20.5 27.5 20.5C26.1193 20.5 25 19.3807 25 18V13C25 11.0109 25.7902 9.10322 27.1967 7.6967Z" fill="currentColor"/>
</svg>