<svg viewBox="0 0 16 17" fill="none" xmlns="http://www.w3.org/2000/svg">
  <g id="BoundingBox">
    <path id="Vector (Stroke)" fill-rule="evenodd" clip-rule="evenodd"
      d="M10 3.5C10 2.94772 10.4477 2.5 11 2.5H13C13.5523 2.5 14 2.94772 14 3.5V5.5C14 6.05228 13.5523 6.5 13 6.5H11C10.4477 6.5 10 6.05228 10 5.5V3.5ZM13 3.5H11V5.5H13V3.5Z"
      fill="currentColor" />
    <path id="Vector (Stroke)_2" fill-rule="evenodd" clip-rule="evenodd"
      d="M2 3.5C2 2.94772 2.44772 2.5 3 2.5H5C5.55228 2.5 6 2.94772 6 3.5V5.5C6 6.05228 5.55228 6.5 5 6.5H3C2.44772 6.5 2 6.05228 2 5.5V3.5ZM5 3.5H3V5.5H5V3.5Z"
      fill="currentColor" />
    <path id="Vector (Stroke)_3" fill-rule="evenodd" clip-rule="evenodd"
      d="M10 11.5C10 10.9477 10.4477 10.5 11 10.5H13C13.5523 10.5 14 10.9477 14 11.5V13.5C14 14.0523 13.5523 14.5 13 14.5H11C10.4477 14.5 10 14.0523 10 13.5V11.5ZM13 11.5H11V13.5H13V11.5Z"
      fill="currentColor" />
    <path id="Vector (Stroke)_4" fill-rule="evenodd" clip-rule="evenodd"
      d="M2 11.5C2 10.9477 2.44772 10.5 3 10.5H5C5.55228 10.5 6 10.9477 6 11.5V13.5C6 14.0523 5.55228 14.5 5 14.5H3C2.44772 14.5 2 14.0523 2 13.5V11.5ZM5 11.5H3V13.5H5V11.5Z"
      fill="currentColor" />
    <path id="Vector (Stroke)_5" fill-rule="evenodd" clip-rule="evenodd"
      d="M4 5.5C4.27614 5.5 4.5 5.72386 4.5 6V11C4.5 11.2761 4.27614 11.5 4 11.5C3.72386 11.5 3.5 11.2761 3.5 11V6C3.5 5.72386 3.72386 5.5 4 5.5Z"
      fill="currentColor" />
    <path id="Vector (Stroke)_6" fill-rule="evenodd" clip-rule="evenodd"
      d="M5 12.5C5 12.2239 5.22386 12 5.5 12H10.5C10.7761 12 11 12.2239 11 12.5C11 12.7761 10.7761 13 10.5 13H5.5C5.22386 13 5 12.7761 5 12.5Z"
      fill="currentColor" />
    <path id="Vector (Stroke)_7" fill-rule="evenodd" clip-rule="evenodd"
      d="M12 5.5C12.2761 5.5 12.5 5.72386 12.5 6V11C12.5 11.2761 12.2761 11.5 12 11.5C11.7239 11.5 11.5 11.2761 11.5 11V6C11.5 5.72386 11.7239 5.5 12 5.5Z"
      fill="currentColor" />
    <path id="Vector (Stroke)_8" fill-rule="evenodd" clip-rule="evenodd"
      d="M5 4.5C5 4.22386 5.22386 4 5.5 4H10.5C10.7761 4 11 4.22386 11 4.5C11 4.77614 10.7761 5 10.5 5H5.5C5.22386 5 5 4.77614 5 4.5Z"
      fill="currentColor" />
  </g>
</svg>