<svg viewBox="0 0 16 17" fill="none" xmlns="http://www.w3.org/2000/svg">
<path d="M13.3566 10.1436L8.35659 5.14363C8.2618 5.04974 8.13377 4.99707 8.00034 4.99707C7.86692 4.99707 7.73889 5.04974 7.64409 5.14363L2.64409 10.1436C2.57626 10.2159 2.53029 10.3059 2.51148 10.4033C2.49268 10.5006 2.50182 10.6013 2.53784 10.6936C2.57609 10.7846 2.64042 10.8623 2.72273 10.9168C2.80503 10.9713 2.90163 11.0002 3.00034 10.9999H13.0003C13.0991 11.0002 13.1957 10.9713 13.278 10.9168C13.3603 10.8623 13.4246 10.7846 13.4628 10.6936C13.4989 10.6013 13.508 10.5006 13.4892 10.4033C13.4704 10.3059 13.4244 10.2159 13.3566 10.1436V10.1436Z" fill="currentColor"/>
</svg>
