<svg viewBox="0 0 16 17" fill="none" xmlns="http://www.w3.org/2000/svg">
<g id="ChartPie">
<path id="Vector (Stroke)" fill-rule="evenodd" clip-rule="evenodd" d="M8 3C4.96243 3 2.5 5.46243 2.5 8.5C2.5 11.5376 4.96243 14 8 14C11.0376 14 13.5 11.5376 13.5 8.5C13.5 5.46243 11.0376 3 8 3ZM1.5 8.5C1.5 4.91015 4.41015 2 8 2C11.5899 2 14.5 4.91015 14.5 8.5C14.5 12.0899 11.5899 15 8 15C4.41015 15 1.5 12.0899 1.5 8.5Z" fill="currentColor"/>
<path id="Vector (Stroke)_2" fill-rule="evenodd" clip-rule="evenodd" d="M8 2C8.27614 2 8.5 2.22386 8.5 2.5V8.5C8.5 8.77614 8.27614 9 8 9C7.72386 9 7.5 8.77614 7.5 8.5V2.5C7.5 2.22386 7.72386 2 8 2Z" fill="currentColor"/>
<path id="Vector (Stroke)_3" fill-rule="evenodd" clip-rule="evenodd" d="M13.6272 5.25C13.7653 5.48912 13.6834 5.79493 13.4443 5.93305L3.05681 11.933C2.81769 12.0712 2.51188 11.9893 2.37376 11.7502C2.23564 11.5111 2.31752 11.2052 2.55664 11.0671L12.9441 5.06712C13.1833 4.929 13.4891 5.01088 13.6272 5.25Z" fill="currentColor"/>
</g>
</svg>
