<svg viewBox="0 0 80 80" fill="none" xmlns="http://www.w3.org/2000/svg">
<g id="ChartLine">
<path id="Vector" d="M70 62.5H12.5V51.125L30.125 35.7188L48.5 49.5C48.9601 49.8456 49.5254 50.0219 50.1004 49.9991C50.6754 49.9763 51.2249 49.7559 51.6562 49.375L71.6562 31.875C71.9025 31.6575 72.1035 31.3936 72.2477 31.0985C72.392 30.8033 72.4767 30.4826 72.497 30.1547C72.5173 29.8268 72.4728 29.4981 72.3661 29.1874C72.2594 28.8766 72.0925 28.59 71.875 28.3437C71.6575 28.0975 71.3936 27.8965 71.0985 27.7523C70.8033 27.608 70.4826 27.5233 70.1547 27.503C69.8268 27.4827 69.4981 27.5272 69.1874 27.6339C68.8766 27.7406 68.59 27.9075 68.3438 28.125L49.875 44.2812L31.5 30.5C31.0399 30.1544 30.4746 29.9781 29.8996 30.0009C29.3246 30.0237 28.7751 30.2441 28.3438 30.625L12.5 44.5V15C12.5 14.337 12.2366 13.7011 11.7678 13.2322C11.2989 12.7634 10.663 12.5 10 12.5C9.33696 12.5 8.70107 12.7634 8.23223 13.2322C7.76339 13.7011 7.5 14.337 7.5 15V65C7.5 65.663 7.76339 66.2989 8.23223 66.7678C8.70107 67.2366 9.33696 67.5 10 67.5H70C70.663 67.5 71.2989 67.2366 71.7678 66.7678C72.2366 66.2989 72.5 65.663 72.5 65C72.5 64.337 72.2366 63.7011 71.7678 63.2322C71.2989 62.7634 70.663 62.5 70 62.5Z" fill="currentColor"/>
</g>
</svg>
