<svg viewBox="0 0 42 42" fill="none" xmlns="http://www.w3.org/2000/svg">
<g id="CheckCircle">
<path id="Vector (Stroke)" fill-rule="evenodd" clip-rule="evenodd" d="M29.1684 16.1565C29.6688 16.681 29.6492 17.5118 29.1247 18.0122L19.4943 27.1997C18.9868 27.6837 18.1885 27.6834 17.6815 27.1989L12.8745 22.6051C12.3504 22.1043 12.3316 21.2735 12.8324 20.7495C13.3332 20.2254 14.164 20.2066 14.688 20.7074L18.5891 24.4353L27.3128 16.1128C27.8373 15.6125 28.6681 15.632 29.1684 16.1565Z" fill="currentColor"/>
<path id="Vector (Stroke)_2" fill-rule="evenodd" clip-rule="evenodd" d="M21 6.5625C13.0264 6.5625 6.5625 13.0264 6.5625 21C6.5625 28.9736 13.0264 35.4375 21 35.4375C28.9736 35.4375 35.4375 28.9736 35.4375 21C35.4375 13.0264 28.9736 6.5625 21 6.5625ZM3.9375 21C3.9375 11.5766 11.5766 3.9375 21 3.9375C30.4234 3.9375 38.0625 11.5766 38.0625 21C38.0625 30.4234 30.4234 38.0625 21 38.0625C11.5766 38.0625 3.9375 30.4234 3.9375 21Z" fill="currentColor"/>
</g>
</svg>
