<svg width="16" height="16" viewBox="0 0 16 16" fill="none" xmlns="http://www.w3.org/2000/svg">
<g id="Question">
<path id="Vector" d="M8 1.5C6.71442 1.5 5.45772 1.88122 4.3888 2.59545C3.31988 3.30968 2.48676 4.32484 1.99479 5.51256C1.50282 6.70028 1.37409 8.00721 1.6249 9.26809C1.8757 10.529 2.49477 11.6872 3.40381 12.5962C4.31285 13.5052 5.47104 14.1243 6.73192 14.3751C7.99279 14.6259 9.29973 14.4972 10.4874 14.0052C11.6752 13.5132 12.6903 12.6801 13.4046 11.6112C14.1188 10.5423 14.5 9.28558 14.5 8C14.4967 6.27711 13.8108 4.62573 12.5925 3.40746C11.3743 2.18918 9.72289 1.5033 8 1.5ZM8 12C7.85167 12 7.70666 11.956 7.58333 11.8736C7.45999 11.7912 7.36386 11.6741 7.30709 11.537C7.25033 11.4 7.23548 11.2492 7.26441 11.1037C7.29335 10.9582 7.36478 10.8246 7.46967 10.7197C7.57456 10.6148 7.7082 10.5434 7.85368 10.5144C7.99917 10.4855 8.14997 10.5003 8.28701 10.5571C8.42406 10.6139 8.54119 10.71 8.6236 10.8333C8.70602 10.9567 8.75 11.1017 8.75 11.25C8.75 11.4489 8.67098 11.6397 8.53033 11.7803C8.38968 11.921 8.19892 12 8 12ZM8.5 8.94375V9C8.5 9.13261 8.44732 9.25979 8.35356 9.35355C8.25979 9.44732 8.13261 9.5 8 9.5C7.86739 9.5 7.74022 9.44732 7.64645 9.35355C7.55268 9.25979 7.5 9.13261 7.5 9V8.5C7.5 8.36739 7.55268 8.24021 7.64645 8.14645C7.74022 8.05268 7.86739 8 8 8C8.24723 8 8.4889 7.92669 8.69447 7.78934C8.90003 7.65199 9.06024 7.45676 9.15485 7.22835C9.24946 6.99995 9.27422 6.74861 9.22598 6.50614C9.17775 6.26366 9.0587 6.04093 8.88389 5.86612C8.70907 5.6913 8.48634 5.57225 8.24387 5.52402C8.00139 5.47579 7.75006 5.50054 7.52165 5.59515C7.29324 5.68976 7.09802 5.84998 6.96067 6.05554C6.82331 6.2611 6.75 6.50277 6.75 6.75C6.75 6.88261 6.69732 7.00979 6.60356 7.10355C6.50979 7.19732 6.38261 7.25 6.25 7.25C6.11739 7.25 5.99022 7.19732 5.89645 7.10355C5.80268 7.00979 5.75 6.88261 5.75 6.75C5.75 6.32644 5.86956 5.91149 6.09492 5.55286C6.32029 5.19423 6.6423 4.9065 7.02393 4.72275C7.40555 4.53901 7.8313 4.46671 8.25219 4.51419C8.67308 4.56166 9.07202 4.72697 9.40313 4.99111C9.73424 5.25524 9.98407 5.60747 10.1239 6.00729C10.2637 6.40711 10.2878 6.83827 10.1935 7.25119C10.0991 7.6641 9.89015 8.04201 9.59057 8.34143C9.29098 8.64085 8.91297 8.84963 8.5 8.94375Z" fill="currentColor"/>
</g>
</svg>
