<svg width="16" height="17" viewBox="0 0 16 17" fill="none" xmlns="http://www.w3.org/2000/svg">
<g id="CircleHalf">
<path id="Vector (Stroke)" fill-rule="evenodd" clip-rule="evenodd" d="M8 3C4.96243 3 2.5 5.46243 2.5 8.5C2.5 11.5376 4.96243 14 8 14C11.0376 14 13.5 11.5376 13.5 8.5C13.5 5.46243 11.0376 3 8 3ZM1.5 8.5C1.5 4.91015 4.41015 2 8 2C11.5899 2 14.5 4.91015 14.5 8.5C14.5 12.0899 11.5899 15 8 15C4.41015 15 1.5 12.0899 1.5 8.5Z" fill="currentColor"/>
<path id="Vector (Stroke)_2" fill-rule="evenodd" clip-rule="evenodd" d="M8 2C8.27614 2 8.5 2.22386 8.5 2.5V14.5C8.5 14.7761 8.27614 15 8 15C7.72386 15 7.5 14.7761 7.5 14.5V2.5C7.5 2.22386 7.72386 2 8 2Z" fill="currentColor"/>
<path id="Vector (Stroke)_3" fill-rule="evenodd" clip-rule="evenodd" d="M12 3.53125C12.2761 3.53125 12.5 3.75511 12.5 4.03125V12.9688C12.5 13.2449 12.2761 13.4688 12 13.4688C11.7239 13.4688 11.5 13.2449 11.5 12.9688V4.03125C11.5 3.75511 11.7239 3.53125 12 3.53125Z" fill="currentColor"/>
<path id="Vector (Stroke)_4" fill-rule="evenodd" clip-rule="evenodd" d="M10 2.34375C10.2761 2.34375 10.5 2.56761 10.5 2.84375V14.1562C10.5 14.4324 10.2761 14.6562 10 14.6562C9.72386 14.6562 9.5 14.4324 9.5 14.1562V2.84375C9.5 2.56761 9.72386 2.34375 10 2.34375Z" fill="currentColor"/>
</g>
</svg>
