<svg viewBox="0 0 40 40" fill="none" xmlns="http://www.w3.org/2000/svg">
  <g id="CircleWavyWarning">
    <path id="Vector (Stroke)" fill-rule="evenodd" clip-rule="evenodd"
      d="M16.8455 7.37789C16.3883 7.77372 15.8407 8.19054 15.2144 8.45102C14.5835 8.71346 13.9019 8.80285 13.302 8.84228C12.9091 8.8681 12.4708 8.87509 12.0714 8.88146C11.8818 8.88449 11.701 8.88737 11.5379 8.89206C10.3363 8.92662 9.72466 9.07436 9.39951 9.39951C9.07618 9.72283 8.9344 10.3163 8.90389 11.5104C8.89998 11.6634 8.89765 11.8312 8.89521 12.0071C8.88954 12.4151 8.88326 12.8669 8.85527 13.2784C8.81388 13.8871 8.71933 14.5738 8.44984 15.2172C8.18317 15.854 7.76616 16.4069 7.36588 16.8705C7.0928 17.1869 6.77778 17.5157 6.49191 17.8141C6.37025 17.9411 6.25387 18.0626 6.14825 18.1752C5.76206 18.5872 5.46365 18.9369 5.2606 19.2663C5.06261 19.5875 5 19.8188 5 20C5 20.1795 5.0633 20.4146 5.2656 20.7435C5.47192 21.0789 5.7744 21.4352 6.1618 21.8502C6.27254 21.9688 6.39539 22.0974 6.52373 22.2317C6.80533 22.5265 7.11336 22.8489 7.37789 23.1545C7.77372 23.6117 8.19054 24.1593 8.45102 24.7856C8.71346 25.4165 8.80285 26.0981 8.84228 26.698C8.8681 27.0909 8.87509 27.5292 8.88146 27.9286C8.88449 28.1182 8.88737 28.299 8.89206 28.4621C8.92662 29.6637 9.07436 30.2753 9.39951 30.6005C9.72283 30.9238 10.3163 31.0656 11.5104 31.0961C11.6634 31.1 11.8312 31.1024 12.0071 31.1048C12.4152 31.1105 12.8669 31.1167 13.2784 31.1447C13.8871 31.1861 14.5738 31.2807 15.2172 31.5502C15.854 31.8168 16.4069 32.2338 16.8705 32.6341C17.1869 32.9072 17.5157 33.2222 17.8141 33.5081C17.9411 33.6297 18.0626 33.7461 18.1752 33.8517C18.5872 34.2379 18.9369 34.5364 19.2663 34.7394C19.5875 34.9374 19.8188 35 20 35C20.1795 35 20.4146 34.9367 20.7435 34.7344C21.0789 34.5281 21.4352 34.2256 21.8502 33.8382C21.9688 33.7275 22.0974 33.6046 22.2317 33.4763C22.5265 33.1947 22.8489 32.8866 23.1545 32.6221C23.6117 32.2263 24.1593 31.8095 24.7856 31.549C25.4165 31.2865 26.0981 31.1972 26.698 31.1577C27.0908 31.1319 27.5291 31.1249 27.9286 31.1185C28.1182 31.1155 28.299 31.1126 28.4621 31.1079C29.6637 31.0734 30.2753 30.9256 30.6005 30.6005C30.9238 30.2772 31.0656 29.6837 31.0961 28.4896C31.1 28.3366 31.1024 28.1688 31.1048 27.9929C31.1105 27.5848 31.1167 27.1331 31.1447 26.7216C31.1861 26.1129 31.2807 25.4262 31.5502 24.7828C31.8168 24.146 32.2338 23.5931 32.6341 23.1295C32.9072 22.8131 33.2222 22.4843 33.5081 22.1859C33.6297 22.0589 33.7461 21.9374 33.8517 21.8248C34.2379 21.4128 34.5364 21.0631 34.7394 20.7337C34.9374 20.4125 35 20.1812 35 20C35 19.8205 34.9367 19.5854 34.7344 19.2565C34.5281 18.9211 34.2256 18.5648 33.8382 18.1498C33.7275 18.0312 33.6046 17.9026 33.4763 17.7683C33.1947 17.4735 32.8866 17.1511 32.6221 16.8455C32.2263 16.3883 31.8095 15.8407 31.549 15.2144C31.2865 14.5835 31.1972 13.9019 31.1577 13.302C31.1319 12.9092 31.1249 12.4709 31.1185 12.0714C31.1155 11.8818 31.1126 11.701 31.1079 11.5379C31.0734 10.3363 30.9256 9.72466 30.6005 9.39951C30.2772 9.07618 29.6837 8.9344 28.4896 8.90389C28.3366 8.89998 28.1688 8.89765 27.9929 8.89521C27.5849 8.88954 27.1331 8.88326 26.7216 8.85527C26.1129 8.81388 25.4262 8.71933 24.7828 8.44984C24.146 8.18317 23.5931 7.76616 23.1295 7.36588C22.8131 7.0928 22.4843 6.77778 22.1859 6.49191C22.0589 6.37025 21.9374 6.25387 21.8248 6.14825C21.4128 5.76206 21.0631 5.46365 20.7337 5.2606C20.4125 5.06261 20.1812 5 20 5C19.8205 5 19.5854 5.0633 19.2565 5.2656C18.9211 5.47192 18.5648 5.7744 18.1498 6.1618C18.0312 6.27254 17.9026 6.39539 17.7683 6.52373C17.4735 6.80533 17.1511 7.11336 16.8455 7.37789ZM17.9466 3.13626C18.5123 2.78827 19.2029 2.5 20 2.5C20.7954 2.5 21.482 2.78504 22.0456 3.13246C22.601 3.47483 23.1028 3.91958 23.5346 4.32441C23.6918 4.47179 23.8369 4.61089 23.9756 4.74385C24.2483 5.00534 24.4963 5.24311 24.7631 5.47348C25.153 5.81001 25.4712 6.02777 25.7485 6.14391C26.0191 6.25723 26.3871 6.32675 26.8912 6.36104C27.2354 6.38445 27.5692 6.3889 27.9388 6.39383C28.1317 6.3964 28.3344 6.39911 28.5534 6.4047C29.6522 6.43278 31.2541 6.51757 32.3683 7.63174C33.4806 8.74409 33.5751 10.359 33.6069 11.466C33.6137 11.7026 33.617 11.919 33.6201 12.1242C33.6255 12.4806 33.6303 12.8031 33.6523 13.138C33.6857 13.645 33.7525 14.0025 33.8573 14.2543C33.964 14.5109 34.1741 14.8187 34.5122 15.2092C34.7379 15.4698 34.9697 15.7123 35.2248 15.9789C35.3639 16.1244 35.51 16.2771 35.6657 16.4439C36.0732 16.8805 36.5198 17.3875 36.8637 17.9466C37.2117 18.5123 37.5 19.2029 37.5 20C37.5 20.7954 37.215 21.482 36.8675 22.0456C36.5252 22.601 36.0804 23.1028 35.6756 23.5346C35.5282 23.6918 35.3891 23.8369 35.2562 23.9756C34.9947 24.2483 34.7569 24.4963 34.5265 24.7631C34.19 25.153 33.9722 25.4712 33.8561 25.7485C33.7428 26.0191 33.6733 26.3871 33.639 26.8912C33.6156 27.2354 33.6111 27.5692 33.6062 27.9388C33.6036 28.1317 33.6009 28.3344 33.5953 28.5534C33.5672 29.6522 33.4824 31.2541 32.3683 32.3683C31.2559 33.4806 29.641 33.5751 28.534 33.6069C28.2974 33.6137 28.081 33.617 27.8758 33.6201C27.5194 33.6255 27.1969 33.6303 26.862 33.6523C26.355 33.6857 25.9975 33.7525 25.7457 33.8573C25.4891 33.964 25.1813 34.1741 24.7908 34.5122C24.5302 34.7379 24.2877 34.9697 24.0211 35.2248C23.8756 35.3639 23.7229 35.51 23.5561 35.6657C23.1195 36.0732 22.6125 36.5198 22.0534 36.8637C21.4877 37.2117 20.7971 37.5 20 37.5C19.2046 37.5 18.518 37.215 17.9544 36.8675C17.399 36.5252 16.8972 36.0804 16.4654 35.6756C16.3082 35.5282 16.1631 35.3891 16.0244 35.2562C15.7517 34.9947 15.5037 34.7569 15.2369 34.5265C14.8471 34.19 14.5288 33.9722 14.2515 33.8561C13.9809 33.7428 13.6129 33.6733 13.1088 33.639C12.7646 33.6156 12.4308 33.6111 12.0612 33.6062C11.8683 33.6036 11.6656 33.6009 11.4466 33.5953C10.3478 33.5672 8.74592 33.4824 7.63174 32.3683C6.51939 31.2559 6.42494 29.641 6.3931 28.534C6.38629 28.2974 6.38302 28.081 6.37993 27.8758C6.37454 27.5194 6.36968 27.1969 6.34766 26.862C6.31434 26.355 6.24748 25.9975 6.14273 25.7457C6.03602 25.4891 5.82589 25.1813 5.48784 24.7908C5.26214 24.5302 5.03028 24.2877 4.77519 24.0211C4.63606 23.8756 4.49001 23.7229 4.3343 23.5561C3.92677 23.1195 3.48023 22.6125 3.13626 22.0534C2.78827 21.4877 2.5 20.7971 2.5 20C2.5 19.2046 2.78504 18.518 3.13246 17.9544C3.47483 17.399 3.91958 16.8972 4.32441 16.4654C4.47179 16.3082 4.61089 16.1631 4.74385 16.0244C5.00534 15.7517 5.24311 15.5037 5.47348 15.2369C5.81001 14.8471 6.02777 14.5288 6.14391 14.2515C6.25723 13.9809 6.32675 13.6129 6.36104 13.1088C6.38445 12.7646 6.3889 12.4308 6.39383 12.0612C6.3964 11.8683 6.39911 11.6656 6.4047 11.4466C6.43278 10.3478 6.51757 8.74592 7.63174 7.63174C8.74409 6.51939 10.359 6.42494 11.466 6.3931C11.7026 6.38629 11.919 6.38302 12.1242 6.37993C12.4806 6.37454 12.8031 6.36968 13.138 6.34766C13.645 6.31434 14.0025 6.24748 14.2543 6.14273C14.5109 6.03602 14.8187 5.82589 15.2092 5.48784C15.4698 5.26214 15.7123 5.03028 15.9789 4.77519C16.1244 4.63606 16.2771 4.49001 16.4439 4.3343C16.8805 3.92677 17.3875 3.48023 17.9466 3.13626Z"
      fill="currentColor" />
    <path id="Vector (Stroke)_2" fill-rule="evenodd" clip-rule="evenodd"
      d="M20 11.25C20.6904 11.25 21.25 11.8096 21.25 12.5V21.25C21.25 21.9404 20.6904 22.5 20 22.5C19.3096 22.5 18.75 21.9404 18.75 21.25V12.5C18.75 11.8096 19.3096 11.25 20 11.25Z"
      fill="currentColor" />
    <path id="Vector"
      d="M20 28.75C21.0355 28.75 21.875 27.9105 21.875 26.875C21.875 25.8395 21.0355 25 20 25C18.9645 25 18.125 25.8395 18.125 26.875C18.125 27.9105 18.9645 28.75 20 28.75Z"
      fill="currentColor" />
  </g>
</svg>