<svg width="16" height="16" viewBox="0 0 16 16" fill="none" xmlns="http://www.w3.org/2000/svg">
<path fill-rule="evenodd" clip-rule="evenodd" d="M8 4.5C8.27614 4.5 8.5 4.72386 8.5 5V8C8.5 8.27614 8.27614 8.5 8 8.5C7.72386 8.5 7.5 8.27614 7.5 8V5C7.5 4.72386 7.72386 4.5 8 4.5Z" fill="currentColor"/>
<path fill-rule="evenodd" clip-rule="evenodd" d="M7.5669 7.75022C7.70489 7.51103 8.01066 7.429 8.24985 7.56699L10.8499 9.06699C11.089 9.20499 11.1711 9.51075 11.0331 9.74994C10.8951 9.98914 10.5893 10.0712 10.3501 9.93318L7.75013 8.43318C7.51094 8.29518 7.4289 7.98941 7.5669 7.75022Z" fill="currentColor"/>
<path fill-rule="evenodd" clip-rule="evenodd" d="M1.98749 3.23047C2.26363 3.23047 2.48749 3.45433 2.48749 3.73047V5.73047H4.48749C4.76363 5.73047 4.98749 5.95433 4.98749 6.23047C4.98749 6.50661 4.76363 6.73047 4.48749 6.73047H1.98749C1.71135 6.73047 1.48749 6.50661 1.48749 6.23047V3.73047C1.48749 3.45433 1.71135 3.23047 1.98749 3.23047Z" fill="currentColor"/>
<path fill-rule="evenodd" clip-rule="evenodd" d="M6.83082 2.11565C7.99484 1.88374 9.20149 2.00228 10.2981 2.45626C11.3948 2.91024 12.3321 3.67927 12.9916 4.66607C13.6511 5.65287 14.0032 6.81311 14.0032 8C14.0032 9.1869 13.6511 10.3471 12.9916 11.3339C12.3321 12.3207 11.3948 13.0898 10.2981 13.5437C9.20149 13.9977 7.99484 14.1163 6.83082 13.8844C5.6668 13.6524 4.59771 13.0805 3.75879 12.2409C3.56361 12.0456 3.56374 11.729 3.75908 11.5338C3.95442 11.3386 4.271 11.3388 4.46619 11.5341C5.16529 12.2338 6.05619 12.7104 7.02621 12.9036C7.99623 13.0969 9.00177 12.9981 9.91564 12.6198C10.8295 12.2415 11.6106 11.6006 12.1602 10.7783C12.7098 9.95594 13.0032 8.98908 13.0032 8C13.0032 7.01092 12.7098 6.04406 12.1602 5.22173C11.6106 4.39939 10.8295 3.75853 9.91564 3.38021C9.00177 3.0019 7.99623 2.90312 7.02621 3.09637C6.05619 3.28963 5.16529 3.76624 4.46619 4.46591L4.46552 4.46658L2.34052 6.58533C2.14497 6.7803 1.82839 6.77983 1.63341 6.58428C1.43844 6.38874 1.43891 6.07215 1.63446 5.87718L3.75879 3.75909C3.7589 3.75898 3.75902 3.75887 3.75913 3.75876C4.598 2.91934 5.66696 2.34753 6.83082 2.11565Z" fill="currentColor"/>
</svg>
