<svg viewBox="0 0 16 17" fill="none" xmlns="http://www.w3.org/2000/svg">
  <g id="CopySimple">
    <path id="Vector (Stroke)" fill-rule="evenodd" clip-rule="evenodd"
      d="M4 3C4 2.72386 4.22386 2.5 4.5 2.5H13.5C13.7761 2.5 14 2.72386 14 3V12C14 12.2761 13.7761 12.5 13.5 12.5C13.2239 12.5 13 12.2761 13 12V3.5H4.5C4.22386 3.5 4 3.27614 4 3Z"
      fill="currentColor" />
    <path id="Vector (Stroke)_2" fill-rule="evenodd" clip-rule="evenodd"
      d="M2 5C2 4.72386 2.22386 4.5 2.5 4.5H11.5C11.7761 4.5 12 4.72386 12 5V14C12 14.2761 11.7761 14.5 11.5 14.5H2.5C2.22386 14.5 2 14.2761 2 14V5ZM3 5.5V13.5H11V5.5H3Z"
      fill="currentColor" />
  </g>
</svg>