<svg viewBox="0 0 20 20" fill="none" xmlns="http://www.w3.org/2000/svg">
  <g id="Database">
    <path id="Vector (Stroke)" fill-rule="evenodd" clip-rule="evenodd"
      d="M5.43792 4.14703C4.2785 4.77945 3.75 5.5504 3.75 6.25C3.75 6.9496 4.2785 7.72055 5.43792 8.35297C6.57371 8.97249 8.18549 9.375 10 9.375C11.8145 9.375 13.4263 8.97249 14.5621 8.35297C15.7215 7.72055 16.25 6.9496 16.25 6.25C16.25 5.5504 15.7215 4.77945 14.5621 4.14703C13.4263 3.52751 11.8145 3.125 10 3.125C8.18549 3.125 6.57371 3.52751 5.43792 4.14703ZM4.83936 3.04966C6.19183 2.31195 8.01755 1.875 10 1.875C11.9824 1.875 13.8082 2.31195 15.1606 3.04966C16.4895 3.77448 17.5 4.87853 17.5 6.25C17.5 7.62147 16.4895 8.72552 15.1606 9.45034C13.8082 10.188 11.9824 10.625 10 10.625C8.01755 10.625 6.19183 10.188 4.83936 9.45034C3.51052 8.72552 2.5 7.62147 2.5 6.25C2.5 4.87853 3.51052 3.77448 4.83936 3.04966Z"
      fill="currentColor" />
    <path id="Vector (Stroke)_2" fill-rule="evenodd" clip-rule="evenodd"
      d="M3.125 5.625C3.47018 5.625 3.75 5.90482 3.75 6.25V10C3.75 10.6992 4.27846 11.4701 5.43798 12.1027C6.57381 12.7223 8.18558 13.125 10 13.125C11.8144 13.125 13.4262 12.7223 14.562 12.1027C15.7215 11.4701 16.25 10.6992 16.25 10V6.25C16.25 5.90482 16.5298 5.625 16.875 5.625C17.2202 5.625 17.5 5.90482 17.5 6.25V10C17.5 11.3711 16.4894 12.4752 15.1606 13.2C13.8082 13.9378 11.9825 14.375 10 14.375C8.01754 14.375 6.19182 13.9378 4.83936 13.2C3.5106 12.4752 2.5 11.3711 2.5 10V6.25C2.5 5.90482 2.77982 5.625 3.125 5.625Z"
      fill="currentColor" />
    <path id="Vector (Stroke)_3" fill-rule="evenodd" clip-rule="evenodd"
      d="M3.125 9.375C3.47018 9.375 3.75 9.65482 3.75 10V13.75C3.75 14.4492 4.27846 15.2201 5.43798 15.8527C6.57381 16.4723 8.18558 16.875 10 16.875C11.8144 16.875 13.4262 16.4723 14.562 15.8527C15.7215 15.2201 16.25 14.4492 16.25 13.75V10C16.25 9.65482 16.5298 9.375 16.875 9.375C17.2202 9.375 17.5 9.65482 17.5 10V13.75C17.5 15.1211 16.4894 16.2252 15.1606 16.95C13.8082 17.6878 11.9825 18.125 10 18.125C8.01754 18.125 6.19182 17.6878 4.83936 16.95C3.5106 16.2252 2.5 15.1211 2.5 13.75V10C2.5 9.65482 2.77982 9.375 3.125 9.375Z"
      fill="currentColor" />
  </g>
</svg>