<svg viewBox="0 0 24 24" fill="none" xmlns="http://www.w3.org/2000/svg">
  <path id="Vector" d="M20.0344 7.71564L14.7844 2.46564C14.6415 2.32635 14.4495 2.24889 14.25 2.25001H5.25C4.85218 2.25001 4.47064 2.40805 4.18934 2.68935C3.90804 2.97066 3.75 3.35219 3.75 3.75001V20.25C3.75 20.6478 3.90804 21.0294 4.18934 21.3107C4.47064 21.592 4.85218 21.75 5.25 21.75H18.75C19.1478 21.75 19.5294 21.592 19.8107 21.3107C20.092 21.0294 20.25 20.6478 20.25 20.25V8.25001C20.2511 8.05048 20.1737 7.85851 20.0344 7.71564ZM14.25 8.25001V4.12501L18.375 8.25001H14.25Z" fill="currentColor"/>
</svg>
