<svg viewBox="0 0 16 17" fill="none" xmlns="http://www.w3.org/2000/svg">
  <g id="DownloadSimple">
    <path id="Vector (Stroke)" fill-rule="evenodd" clip-rule="evenodd" d="M5.02145 7.02145C5.21671 6.82618 5.53329 6.82618 5.72855 7.02145L8 9.29289L10.2714 7.02145C10.4667 6.82618 10.7833 6.82618 10.9786 7.02145C11.1738 7.21671 11.1738 7.53329 10.9786 7.72855L8.35355 10.3536C8.15829 10.5488 7.84171 10.5488 7.64645 10.3536L5.02145 7.72855C4.82618 7.53329 4.82618 7.21671 5.02145 7.02145Z" fill="currentColor"/>
    <path id="Vector (Stroke)_2" fill-rule="evenodd" clip-rule="evenodd" d="M8 2.5C8.27614 2.5 8.5 2.72386 8.5 3V10C8.5 10.2761 8.27614 10.5 8 10.5C7.72386 10.5 7.5 10.2761 7.5 10V3C7.5 2.72386 7.72386 2.5 8 2.5Z" fill="currentColor"/>
    <path id="Vector (Stroke)_3" fill-rule="evenodd" clip-rule="evenodd" d="M2.5 9.5C2.77614 9.5 3 9.72386 3 10V13.5H13V10C13 9.72386 13.2239 9.5 13.5 9.5C13.7761 9.5 14 9.72386 14 10V13.5C14 13.7652 13.8946 14.0196 13.7071 14.2071C13.5196 14.3946 13.2652 14.5 13 14.5H3C2.73478 14.5 2.48043 14.3946 2.29289 14.2071C2.10536 14.0196 2 13.7652 2 13.5V10C2 9.72386 2.22386 9.5 2.5 9.5Z" fill="currentColor"/>
  </g>
</svg>
