<svg viewBox="0 0 16 16" fill="none" xmlns="http://www.w3.org/2000/svg">
  <g id="DotsThree">
    <path id="Vector"
      d="M8.75 8C8.75 8.14834 8.70601 8.29334 8.6236 8.41668C8.54119 8.54001 8.42406 8.63614 8.28701 8.69291C8.14997 8.74967 7.99917 8.76453 7.85368 8.73559C7.7082 8.70665 7.57456 8.63522 7.46967 8.53033C7.36478 8.42544 7.29335 8.2918 7.26441 8.14632C7.23547 8.00083 7.25033 7.85003 7.30709 7.71299C7.36386 7.57594 7.45999 7.45881 7.58332 7.3764C7.70666 7.29399 7.85166 7.25 8 7.25C8.19891 7.25 8.38968 7.32902 8.53033 7.46967C8.67098 7.61032 8.75 7.80109 8.75 8ZM12 7.25C11.8517 7.25 11.7067 7.29399 11.5833 7.3764C11.46 7.45881 11.3639 7.57594 11.3071 7.71299C11.2503 7.85003 11.2355 8.00083 11.2644 8.14632C11.2934 8.2918 11.3648 8.42544 11.4697 8.53033C11.5746 8.63522 11.7082 8.70665 11.8537 8.73559C11.9992 8.76453 12.15 8.74967 12.287 8.69291C12.4241 8.63614 12.5412 8.54001 12.6236 8.41668C12.706 8.29334 12.75 8.14834 12.75 8C12.75 7.80109 12.671 7.61032 12.5303 7.46967C12.3897 7.32902 12.1989 7.25 12 7.25ZM4 7.25C3.85166 7.25 3.70666 7.29399 3.58332 7.3764C3.45999 7.45881 3.36386 7.57594 3.30709 7.71299C3.25032 7.85003 3.23547 8.00083 3.26441 8.14632C3.29335 8.2918 3.36478 8.42544 3.46967 8.53033C3.57456 8.63522 3.7082 8.70665 3.85368 8.73559C3.99917 8.76453 4.14997 8.74967 4.28701 8.69291C4.42406 8.63614 4.54119 8.54001 4.6236 8.41668C4.70601 8.29334 4.75 8.14834 4.75 8C4.75 7.80109 4.67098 7.61032 4.53033 7.46967C4.38968 7.32902 4.19891 7.25 4 7.25Z"
      fill="currentColor" />
  </g>
</svg>