<svg xmlns="http://www.w3.org/2000/svg" width="80" height="80" viewBox="0 0 80 80" fill="none">
<path fill-rule="evenodd" clip-rule="evenodd" d="M2.5 32.5C3.88071 32.5 5 33.6193 5 35V55C5 56.3807 3.88071 57.5 2.5 57.5C1.11929 57.5 0 56.3807 0 55V35C0 33.6193 1.11929 32.5 2.5 32.5Z" fill="currentColor"/>
<path fill-rule="evenodd" clip-rule="evenodd" d="M25 12.5C25 11.1193 26.1193 10 27.5 10H47.5C48.8807 10 50 11.1193 50 12.5C50 13.8807 48.8807 15 47.5 15H27.5C26.1193 15 25 13.8807 25 12.5Z" fill="currentColor"/>
<path fill-rule="evenodd" clip-rule="evenodd" d="M77.5 32.5C78.8807 32.5 80 33.6193 80 35V55C80 56.3807 78.8807 57.5 77.5 57.5C76.1193 57.5 75 56.3807 75 55V35C75 33.6193 76.1193 32.5 77.5 32.5Z" fill="currentColor"/>
<path fill-rule="evenodd" clip-rule="evenodd" d="M11.4645 21.4645C12.4021 20.5268 13.6739 20 15 20H46.4668C47.7911 20.0006 49.0611 20.5266 49.998 21.4625L61.0355 32.5H65C66.3261 32.5 67.5979 33.0268 68.5355 33.9645C69.4732 34.9022 70 36.1739 70 37.5V52.5C70 53.8261 69.4732 55.0979 68.5355 56.0355C67.5978 56.9732 66.3261 57.5 65 57.5L61.0355 57.5L49.998 68.5375C49.0611 69.4734 47.7911 69.9994 46.4668 70H26.0332C24.7089 69.9994 23.4389 69.4734 22.502 68.5375L11.4625 57.498C10.5266 56.5611 10.0006 55.2911 10 53.9668L10 25C10 23.6739 10.5268 22.4021 11.4645 21.4645ZM46.4645 25L15 25L15 53.9645L26.0355 65H46.4645L57.501 53.9635L57.502 53.9625C58.4389 53.0266 59.7089 52.5006 61.0332 52.5H65V37.5H61.0332C59.7089 37.4994 58.4389 36.9734 57.502 36.0375L57.501 36.0365L46.4645 25Z" fill="currentColor"/>
<path fill-rule="evenodd" clip-rule="evenodd" d="M0 45C0 43.6193 1.11929 42.5 2.5 42.5H12.5C13.8807 42.5 15 43.6193 15 45C15 46.3807 13.8807 47.5 12.5 47.5H2.5C1.11929 47.5 0 46.3807 0 45Z" fill="currentColor"/>
<path fill-rule="evenodd" clip-rule="evenodd" d="M37.5 10C38.8807 10 40 11.1193 40 12.5V22.5C40 23.8807 38.8807 25 37.5 25C36.1193 25 35 23.8807 35 22.5V12.5C35 11.1193 36.1193 10 37.5 10Z" fill="currentColor"/>
<path fill-rule="evenodd" clip-rule="evenodd" d="M65 45C65 43.6193 66.1193 42.5 67.5 42.5H77.5C78.8807 42.5 80 43.6193 80 45C80 46.3807 78.8807 47.5 77.5 47.5H67.5C66.1193 47.5 65 46.3807 65 45Z" fill="currentColor"/>
</svg>