<svg width="81" height="80" viewBox="0 0 81 80" fill="none" xmlns="http://www.w3.org/2000/svg">
<g id="EnvelopeOpen">
<path id="Vector (Stroke)" fill-rule="evenodd" clip-rule="evenodd" d="M39.1133 7.91987C39.953 7.36004 41.047 7.36004 41.8867 7.91987L71.8868 27.9199C72.5822 28.3835 73 29.1641 73 30V62.5C73 63.8261 72.4732 65.0978 71.5355 66.0355C70.5978 66.9732 69.3261 67.5 68 67.5H13C11.6739 67.5 10.4022 66.9732 9.46447 66.0355C8.52678 65.0979 8 63.8261 8 62.5V30C8 29.1641 8.41775 28.3835 9.11325 27.9199L39.1133 7.91987ZM13 31.338V62.5H68V31.338L40.5 13.0046L13 31.338Z" fill="currentColor"/>
<path id="Vector (Stroke)_2" fill-rule="evenodd" clip-rule="evenodd" d="M37.0732 46.0575C37.87 47.1852 37.6017 48.7452 36.4741 49.542L12.7241 66.3232C11.5965 67.12 10.0365 66.8517 9.23971 65.7241C8.44295 64.5965 8.71117 63.0365 9.8388 62.2397L33.5888 45.4585C34.7164 44.6617 36.2764 44.9299 37.0732 46.0575Z" fill="currentColor"/>
<path id="Vector (Stroke)_3" fill-rule="evenodd" clip-rule="evenodd" d="M43.9272 46.0575C44.724 44.9299 46.284 44.6617 47.4116 45.4585L71.1616 62.2397C72.2892 63.0365 72.5575 64.5965 71.7607 65.7241C70.9639 66.8517 69.4039 67.12 68.2763 66.3232L44.5263 49.542C43.3987 48.7452 43.1304 47.1852 43.9272 46.0575Z" fill="currentColor"/>
<path id="Vector (Stroke)_4" fill-rule="evenodd" clip-rule="evenodd" d="M8.46499 28.5483C9.26683 27.4243 10.828 27.1631 11.9521 27.965L35.8318 45.0002H45.1686L69.0483 27.965C70.1723 27.1631 71.7336 27.4243 72.5354 28.5483C73.3373 29.6723 73.0761 31.2336 71.9521 32.0354L47.4208 49.5354C46.9971 49.8377 46.4895 50.0002 45.9689 50.0002H35.0314C34.5109 50.0002 34.0033 49.8377 33.5796 49.5354L9.04833 32.0354C7.92431 31.2336 7.66314 29.6723 8.46499 28.5483Z" fill="currentColor"/>
</g>
</svg>
