<svg xmlns="http://www.w3.org/2000/svg" width="16" height="17" viewBox="0 0 16 17" fill="none">
  <path fill-rule="evenodd" clip-rule="evenodd" d="M7.64645 1.14645C7.84171 0.951184 8.15829 0.951184 8.35355 1.14645L10.9786 3.77145C11.1738 3.96671 11.1738 4.28329 10.9786 4.47855C10.7833 4.67382 10.4667 4.67382 10.2714 4.47855L8 2.20711L5.72855 4.47855C5.53329 4.67382 5.21671 4.67382 5.02145 4.47855C4.82618 4.28329 4.82618 3.96671 5.02145 3.77145L7.64645 1.14645Z" fill="currentColor"/>
  <path fill-rule="evenodd" clip-rule="evenodd" d="M8 1C8.27614 1 8.5 1.22386 8.5 1.5V8.5C8.5 8.77614 8.27614 9 8 9C7.72386 9 7.5 8.77614 7.5 8.5V1.5C7.5 1.22386 7.72386 1 8 1Z" fill="currentColor"/>
  <path fill-rule="evenodd" clip-rule="evenodd" d="M2.79289 6.29289C2.98043 6.10536 3.23478 6 3.5 6H5C5.27614 6 5.5 6.22386 5.5 6.5C5.5 6.77614 5.27614 7 5 7L3.5 7L3.5 13.5H12.5V7H11C10.7239 7 10.5 6.77614 10.5 6.5C10.5 6.22386 10.7239 6 11 6H12.5C12.7652 6 13.0196 6.10536 13.2071 6.29289C13.3946 6.48043 13.5 6.73478 13.5 7V13.5C13.5 13.7652 13.3946 14.0196 13.2071 14.2071C13.0196 14.3946 12.7652 14.5 12.5 14.5H3.5C3.23478 14.5 2.98043 14.3946 2.79289 14.2071C2.60536 14.0196 2.5 13.7652 2.5 13.5V7C2.5 6.73478 2.60536 6.48043 2.79289 6.29289Z" fill="currentColor"/>
</svg>