<svg viewBox="0 0 16 17" fill="none" xmlns="http://www.w3.org/2000/svg">
<g id="EyeSlash">
<path id="Vector (Stroke)" fill-rule="evenodd" clip-rule="evenodd" d="M2.66367 2.63003C2.868 2.44428 3.18422 2.45934 3.36997 2.66367L13.37 13.6637C13.5557 13.868 13.5407 14.1842 13.3363 14.37C13.132 14.5557 12.8158 14.5407 12.63 14.3363L2.63003 3.33634C2.44428 3.13201 2.45934 2.81579 2.66367 2.63003Z" fill="currentColor"/>
<path id="Vector (Stroke)_2" fill-rule="evenodd" clip-rule="evenodd" d="M6.68848 6.3136C6.87422 6.51795 6.85913 6.83417 6.65479 7.01991C6.35607 7.29142 6.14651 7.64696 6.05364 8.0398C5.96078 8.43264 5.98896 8.84439 6.13449 9.22092C6.28001 9.59744 6.53607 9.92112 6.86899 10.1494C7.20191 10.3777 7.59612 10.4999 7.99979 10.4999L8.00163 10.4999C8.49814 10.5018 8.97713 10.3166 9.34324 9.98122C9.54686 9.79469 9.86313 9.80854 10.0497 10.0122C10.2362 10.2158 10.2223 10.5321 10.0187 10.7186C9.46748 11.2236 8.74632 11.5025 7.99876 11.4999C7.39358 11.4997 6.80261 11.3164 6.30348 10.9741C5.8041 10.6317 5.42002 10.1462 5.20173 9.58142C4.98344 9.01663 4.94117 8.39901 5.08047 7.80975C5.21976 7.22049 5.53411 6.68717 5.98218 6.27991C6.18653 6.09417 6.50275 6.10926 6.68848 6.3136Z" fill="currentColor"/>
<path id="Vector (Stroke)_3" fill-rule="evenodd" clip-rule="evenodd" d="M5.07126 4.56235C5.19572 4.80885 5.09679 5.10958 4.85028 5.23404C3.66184 5.83409 2.81022 6.70331 2.25315 7.43076C1.97545 7.7934 1.77373 8.11719 1.64245 8.34822C1.61035 8.40471 1.58251 8.45556 1.55885 8.49996C1.61768 8.61017 1.7022 8.75988 1.81367 8.93692C2.06419 9.33481 2.44799 9.86616 2.97848 10.3967C4.03657 11.4547 5.66622 12.5002 7.99993 12.5002H8.004C9.09611 12.5091 10.1746 12.2575 11.15 11.7662C11.3966 11.6419 11.6972 11.7412 11.8215 11.9878C11.9457 12.2344 11.8465 12.535 11.5999 12.6593C10.4831 13.2218 9.24827 13.5101 7.99784 13.5002C5.33266 13.4996 3.46297 12.2954 2.27137 11.1038C1.67686 10.5092 1.24816 9.9156 0.967435 9.46974C0.826826 9.24642 0.722624 9.05903 0.652714 8.92557C0.61774 8.8588 0.591291 8.80542 0.573107 8.76765C0.564014 8.74876 0.556982 8.73377 0.551979 8.72295L0.545992 8.70988L0.544131 8.70576L0.543482 8.70431L0.543228 8.70374C0.54312 8.7035 0.54302 8.70327 0.999926 8.50021C0.542826 8.29757 0.542898 8.29741 0.542974 8.29724L0.543567 8.29591L0.544712 8.29336L0.548215 8.28563C0.551091 8.27932 0.555054 8.27073 0.560115 8.25997C0.570237 8.23843 0.58476 8.20817 0.603789 8.17008C0.641835 8.0939 0.697968 7.98623 0.773027 7.85415C0.922993 7.59025 1.14941 7.22732 1.4592 6.82277C2.07714 6.01585 3.03801 5.02882 4.39957 4.34137C4.64607 4.21691 4.9468 4.31585 5.07126 4.56235ZM0.999926 8.50021L0.542974 8.29724C0.485706 8.42643 0.485629 8.57414 0.54302 8.70327L0.999926 8.50021Z" fill="currentColor"/>
<path id="Vector (Stroke)_4" fill-rule="evenodd" clip-rule="evenodd" d="M6.62358 3.61313C7.07855 3.53697 7.5391 3.49913 8.00039 3.50002C8.00023 3.50001 8.00055 3.50002 8.00039 3.50002L7.99988 4.00002V3.50002C8.00005 3.50002 8.00022 3.50002 8.00039 3.50002C10.6664 3.50017 12.5366 4.70462 13.7284 5.89646C14.3229 6.49097 14.7516 7.08462 15.0324 7.53048C15.173 7.7538 15.2772 7.94119 15.3471 8.07465C15.3821 8.14142 15.4085 8.1948 15.4267 8.23257C15.4358 8.25146 15.4428 8.26645 15.4478 8.27727L15.4538 8.29034L15.4557 8.29446L15.4563 8.29591L15.4566 8.29648C15.4567 8.29672 15.4568 8.29695 14.9999 8.50002C14.543 8.29695 14.543 8.29684 14.5431 8.29673L14.5393 8.30498C14.5357 8.31263 14.5298 8.32513 14.5216 8.34212C14.5051 8.37611 14.4792 8.42801 14.4435 8.49498C14.4426 8.49665 14.4417 8.49833 14.4408 8.50002C14.382 8.38984 14.2975 8.24021 14.1861 8.0633C13.9356 7.66541 13.5518 7.13406 13.0213 6.60357C11.9632 5.54548 10.3336 4.50002 7.99988 4.50002H7.9989C7.59342 4.49922 7.18859 4.53246 6.78868 4.5994C6.51633 4.64499 6.25858 4.46117 6.21299 4.18881C6.1674 3.91646 6.35123 3.65872 6.62358 3.61313ZM14.9999 8.50002L15.4568 8.70308C15.5142 8.5738 15.5142 8.42623 15.4568 8.29695L14.9999 8.50002ZM14.4408 8.50002C14.3694 8.63385 14.2602 8.82566 14.1111 9.05372C13.8084 9.51666 13.3451 10.1227 12.704 10.6961C12.4982 10.8802 12.4806 11.1963 12.6647 11.4021C12.8488 11.6079 13.1649 11.6255 13.3707 11.4414C14.0922 10.7961 14.6101 10.1178 14.948 9.601C15.1173 9.3421 15.2425 9.1222 15.3262 8.96501C15.368 8.88637 15.3996 8.82328 15.4213 8.77868C15.4321 8.75638 15.4404 8.73869 15.4463 8.72597L15.4534 8.71066L15.4555 8.70589L15.4563 8.70424L15.4566 8.7036C15.4566 8.70348 15.4568 8.70308 14.9999 8.50002C14.543 8.70308 14.5431 8.70327 14.5431 8.70345L14.5402 8.69694C14.5373 8.69073 14.5325 8.68046 14.5257 8.66639C14.5121 8.63823 14.4907 8.59494 14.4613 8.53866C14.4548 8.52639 14.448 8.5135 14.4408 8.50002Z" fill="currentColor"/>
<path id="Vector (Stroke)_5" fill-rule="evenodd" clip-rule="evenodd" d="M7.97758 5.95047C8.02899 5.67915 8.29061 5.50088 8.56192 5.55229C9.20017 5.67322 9.78177 5.99847 10.2189 6.47896C10.6561 6.95945 10.9252 7.5691 10.9854 8.2159C11.0111 8.49085 10.8089 8.73452 10.534 8.76014C10.259 8.78577 10.0154 8.58365 9.98975 8.3087C9.9496 7.87794 9.77044 7.47193 9.47929 7.15194C9.18815 6.83195 8.80082 6.61534 8.37576 6.53481C8.10445 6.4834 7.92617 6.22178 7.97758 5.95047Z" fill="currentColor"/>
</g>
</svg>
