<svg  viewBox="0 0 16 17" fill="none" xmlns="http://www.w3.org/2000/svg">
<g id="Eye">
<path id="Vector (Stroke)" fill-rule="evenodd" clip-rule="evenodd" d="M2.27145 5.89645C3.46336 4.70453 5.33371 3.5 8 3.5C10.6663 3.5 12.5366 4.70453 13.7286 5.89645C14.3231 6.49096 14.7518 7.08461 15.0325 7.53047C15.1731 7.75379 15.2773 7.94117 15.3472 8.07464C15.3822 8.14141 15.4086 8.19479 15.4268 8.23255C15.4359 8.25144 15.4429 8.26643 15.4479 8.27725L15.4539 8.29032L15.4558 8.29445L15.4564 8.2959L15.4567 8.29646C15.4568 8.29671 15.4569 8.29693 15 8.5C15.4569 8.70307 15.4568 8.70329 15.4567 8.70354L15.4564 8.7041L15.4558 8.70555L15.4539 8.70968L15.4479 8.72275C15.4429 8.73357 15.4359 8.74856 15.4268 8.76745C15.4086 8.80521 15.3822 8.85859 15.3472 8.92536C15.2773 9.05883 15.1731 9.24621 15.0325 9.46953C14.7518 9.91539 14.3231 10.509 13.7286 11.1036C12.5366 12.2955 10.6663 13.5 8 13.5C5.33371 13.5 3.46336 12.2955 2.27145 11.1036C1.67693 10.509 1.24824 9.91539 0.967509 9.46953C0.826899 9.24621 0.722698 9.05883 0.652787 8.92536C0.617813 8.85859 0.591364 8.80521 0.573181 8.76745C0.564087 8.74856 0.557055 8.73357 0.552053 8.72275L0.546066 8.70968L0.544205 8.70555L0.543556 8.7041L0.543302 8.70354C0.543194 8.70329 0.543094 8.70307 1 8.5C0.543094 8.29693 0.543194 8.29671 0.543302 8.29646L0.543556 8.2959L0.544205 8.29445L0.546066 8.29032L0.552053 8.27725C0.557055 8.26643 0.564087 8.25144 0.573181 8.23255C0.591364 8.19479 0.617813 8.14141 0.652787 8.07464C0.722698 7.94117 0.826899 7.75379 0.967509 7.53047C1.24824 7.08461 1.67693 6.49096 2.27145 5.89645ZM1 8.5L0.543094 8.29693C0.485635 8.42621 0.485635 8.57379 0.543094 8.70307L1 8.5ZM1.55906 8.5C1.61788 8.61018 1.70235 8.75981 1.81374 8.93672C2.06426 9.33461 2.44807 9.86596 2.97855 10.3964C4.03664 11.4545 5.66629 12.5 8 12.5C10.3337 12.5 11.9634 11.4545 13.0214 10.3964C13.5519 9.86596 13.9357 9.33461 14.1863 8.93672C14.2976 8.75981 14.3821 8.61018 14.4409 8.5C14.3821 8.38982 14.2976 8.24019 14.1863 8.06328C13.9357 7.66539 13.5519 7.13404 13.0214 6.60355C11.9634 5.54547 10.3337 4.5 8 4.5C5.66629 4.5 4.03664 5.54547 2.97855 6.60355C2.44807 7.13404 2.06426 7.66539 1.81374 8.06328C1.70235 8.24019 1.61788 8.38982 1.55906 8.5ZM15 8.5L15.4569 8.70307C15.5144 8.57379 15.5144 8.42621 15.4569 8.29693L15 8.5Z" fill="currentColor"/>
<path id="Vector (Stroke)_2" fill-rule="evenodd" clip-rule="evenodd" d="M8 6.5C6.89543 6.5 6 7.39543 6 8.5C6 9.60457 6.89543 10.5 8 10.5C9.10457 10.5 10 9.60457 10 8.5C10 7.39543 9.10457 6.5 8 6.5ZM5 8.5C5 6.84315 6.34315 5.5 8 5.5C9.65685 5.5 11 6.84315 11 8.5C11 10.1569 9.65685 11.5 8 11.5C6.34315 11.5 5 10.1569 5 8.5Z" fill="currentColor"/>
</g>
</svg>
