<svg viewBox="0 0 16 17" fill="none" xmlns="http://www.w3.org/2000/svg">
  <g id="Files">
    <path id="Vector (Stroke)" fill-rule="evenodd" clip-rule="evenodd"
      d="M2.79289 4.29289C2.98043 4.10536 3.23478 4 3.5 4H8.5C8.63261 4 8.75979 4.05268 8.85355 4.14645L11.3536 6.64645C11.4473 6.74021 11.5 6.86739 11.5 7V14C11.5 14.2652 11.3946 14.5196 11.2071 14.7071C11.0196 14.8946 10.7652 15 10.5 15H3.5C3.23478 15 2.98043 14.8946 2.79289 14.7071C2.60536 14.5196 2.5 14.2652 2.5 14V5C2.5 4.73478 2.60536 4.48043 2.79289 4.29289ZM8.29289 5L3.5 5L3.5 14H10.5V7.20711L8.29289 5Z"
      fill="currentColor" />
    <path id="Vector (Stroke)_2" fill-rule="evenodd" clip-rule="evenodd"
      d="M4.79289 2.29289C4.98043 2.10536 5.23478 2 5.5 2H10.5C10.6326 2 10.7598 2.05268 10.8536 2.14645L13.3536 4.64645C13.4473 4.74021 13.5 4.86739 13.5 5V12C13.5 12.2652 13.3946 12.5196 13.2071 12.7071C13.0196 12.8946 12.7652 13 12.5 13H11C10.7239 13 10.5 12.7761 10.5 12.5C10.5 12.2239 10.7239 12 11 12H12.5V5.20711L10.2929 3L5.5 3L5.5 4.5C5.5 4.77614 5.27614 5 5 5C4.72386 5 4.5 4.77614 4.5 4.5V3C4.5 2.73478 4.60536 2.48043 4.79289 2.29289Z"
      fill="currentColor" />
    <path id="Vector (Stroke)_3" fill-rule="evenodd" clip-rule="evenodd"
      d="M5 10C5 9.72386 5.22386 9.5 5.5 9.5H8.5C8.77614 9.5 9 9.72386 9 10C9 10.2761 8.77614 10.5 8.5 10.5H5.5C5.22386 10.5 5 10.2761 5 10Z"
      fill="currentColor" />
    <path id="Vector (Stroke)_4" fill-rule="evenodd" clip-rule="evenodd"
      d="M5 12C5 11.7239 5.22386 11.5 5.5 11.5H8.5C8.77614 11.5 9 11.7239 9 12C9 12.2761 8.77614 12.5 8.5 12.5H5.5C5.22386 12.5 5 12.2761 5 12Z"
      fill="currentColor" />
  </g>
</svg>