<svg viewBox="0 0 20 20" fill="none" xmlns="http://www.w3.org/2000/svg">
  <g id="FileCsv">
    <path id="Vector (Stroke)" fill-rule="evenodd" clip-rule="evenodd"
      d="M13.197 12.5482C13.5157 12.4155 13.8816 12.5662 14.0143 12.8848L14.9999 15.2502L15.9855 12.8848C16.1183 12.5662 16.4842 12.4155 16.8028 12.5482C17.1214 12.681 17.2721 13.0469 17.1393 13.3655L15.5768 17.1155C15.4798 17.3485 15.2522 17.5002 14.9999 17.5002C14.7476 17.5002 14.52 17.3485 14.423 17.1155L12.8605 13.3655C12.7277 13.0469 12.8784 12.681 13.197 12.5482Z"
      fill="currentColor" />
    <path id="Vector (Stroke)_2" fill-rule="evenodd" clip-rule="evenodd"
      d="M5.15375 13.75C4.59693 13.7515 4.0625 14.2548 4.0625 15C4.0625 15.7452 4.59693 16.2485 5.15375 16.25C5.40363 16.2474 5.64381 16.1527 5.82829 15.984C6.08306 15.7511 6.47839 15.7688 6.71129 16.0236C6.94419 16.2784 6.92647 16.6737 6.67171 16.9066C6.25877 17.2841 5.72076 17.4955 5.16129 17.5L5.15625 17.5V17.5C3.80772 17.5 2.8125 16.3318 2.8125 15C2.8125 13.6682 3.80772 12.5 5.15625 12.5H5.16129L5.16129 12.5C5.72076 12.5045 6.25877 12.7159 6.67171 13.0934C6.92647 13.3263 6.94419 13.7216 6.71129 13.9764C6.47839 14.2312 6.08306 14.2489 5.82829 14.016C5.64381 13.8473 5.40364 13.7526 5.15375 13.75Z"
      fill="currentColor" />
    <path id="Vector (Stroke)_3" fill-rule="evenodd" clip-rule="evenodd"
      d="M9.47905 13.7948C9.42317 13.8427 9.37504 13.9179 9.37504 14.0625C9.37504 14.0699 9.37538 14.0749 9.37573 14.078C9.38259 14.0854 9.40263 14.1041 9.44922 14.1306C9.59772 14.2149 9.81918 14.276 10.1605 14.3666C10.1668 14.3683 10.1732 14.37 10.1796 14.3717C10.4694 14.4486 10.8655 14.5538 11.1846 14.7483C11.5564 14.9748 11.875 15.3554 11.875 15.9375C11.875 16.5267 11.6221 16.9859 11.1866 17.2647C10.7963 17.5145 10.3239 17.5781 9.92191 17.5781L9.92026 17.5781C9.36374 17.5767 8.82246 17.3962 8.37636 17.0635C8.09967 16.8571 8.04267 16.4655 8.24905 16.1888C8.45542 15.9121 8.84703 15.8551 9.12371 16.0615C9.35462 16.2337 9.63475 16.3272 9.9228 16.3281C10.2234 16.328 10.4148 16.2745 10.5127 16.2119C10.5535 16.1858 10.5747 16.1606 10.5887 16.1341C10.6034 16.1061 10.625 16.0482 10.625 15.9375C10.625 15.935 10.6251 15.9326 10.6251 15.9303C10.6254 15.8922 10.6256 15.8714 10.5342 15.8157C10.3917 15.7289 10.1734 15.6634 9.83959 15.5748C9.82165 15.57 9.80323 15.5651 9.78438 15.5602C9.5052 15.4864 9.13211 15.3879 8.8321 15.2176C8.66112 15.1205 8.48005 14.9829 8.34209 14.7818C8.19864 14.5727 8.12504 14.3285 8.12504 14.0625C8.12504 13.5821 8.31128 13.1494 8.66556 12.8458C9.0096 12.5509 9.45888 12.4219 9.92191 12.4219H9.92357V12.4219C10.4801 12.4233 11.0214 12.6038 11.4675 12.9365C11.7442 13.1429 11.8012 13.5345 11.5948 13.8112C11.3884 14.0879 10.9968 14.1449 10.7201 13.9385C10.4892 13.7663 10.2091 13.6728 9.92109 13.6719C9.68151 13.672 9.54509 13.7382 9.47905 13.7948ZM9.37652 14.0825C9.3765 14.0825 9.37637 14.0821 9.37619 14.0812L9.37652 14.0825Z"
      fill="currentColor" />
    <path id="Vector (Stroke)_4" fill-rule="evenodd" clip-rule="evenodd"
      d="M3.49112 2.24112C3.72554 2.0067 4.04348 1.875 4.375 1.875H11.875C12.0408 1.875 12.1997 1.94085 12.3169 2.05806L16.6919 6.43306C16.8092 6.55027 16.875 6.70924 16.875 6.875V10C16.875 10.3452 16.5952 10.625 16.25 10.625C15.9048 10.625 15.625 10.3452 15.625 10V7.13388L11.6161 3.125L4.375 3.125L4.375 10C4.375 10.3452 4.09518 10.625 3.75 10.625C3.40482 10.625 3.125 10.3452 3.125 10V3.125C3.125 2.79348 3.2567 2.47554 3.49112 2.24112Z"
      fill="currentColor" />
    <path id="Vector (Stroke)_5" fill-rule="evenodd" clip-rule="evenodd"
      d="M11.875 1.875C12.2202 1.875 12.5 2.15482 12.5 2.5V6.25H16.25C16.5952 6.25 16.875 6.52982 16.875 6.875C16.875 7.22018 16.5952 7.5 16.25 7.5H11.875C11.5298 7.5 11.25 7.22018 11.25 6.875V2.5C11.25 2.15482 11.5298 1.875 11.875 1.875Z"
      fill="currentColor" />
  </g>
</svg>