<svg width="16" height="17" viewBox="0 0 16 17" fill="none" xmlns="http://www.w3.org/2000/svg">
<g id="FileImage">
<path id="Vector (Stroke)" fill-rule="evenodd" clip-rule="evenodd" d="M6.14058 9.79134C6.25064 9.73059 6.3743 9.69873 6.5 9.69873C6.6257 9.69873 6.74936 9.73059 6.85942 9.79134C6.96703 9.85074 7.05821 9.93587 7.12484 10.0391L9.91593 14.2226C10.0183 14.376 10.0279 14.5733 9.94088 14.7359C9.85388 14.8986 9.68443 15.0001 9.5 15.0001H1.5C1.31717 15.0001 1.14891 14.9003 1.06124 14.7398C0.973565 14.5794 0.980451 14.3839 1.0792 14.23L3.1167 11.055L3.12287 11.0457C3.19209 10.9429 3.28548 10.8588 3.39482 10.8006C3.50417 10.7425 3.62614 10.712 3.75 10.712C3.87386 10.712 3.99583 10.7425 4.10518 10.8006C4.21453 10.8588 4.30791 10.9429 4.37713 11.0457L4.38318 11.0548L4.78388 11.6786L5.87497 10.0394C5.94161 9.93604 6.03286 9.8508 6.14058 9.79134ZM6.50025 10.9047L5.40218 12.5544C5.33248 12.6579 5.23806 12.7423 5.1275 12.8001C5.01694 12.8579 4.89371 12.8872 4.76897 12.8853C4.64423 12.8834 4.52193 12.8505 4.41314 12.7895C4.3051 12.7288 4.21377 12.6424 4.1473 12.5379L3.75011 11.9196L2.41497 14.0001H8.56535L6.50025 10.9047Z" fill="currentColor"/>
<path id="Vector (Stroke)_2" fill-rule="evenodd" clip-rule="evenodd" d="M9.5 2C9.77614 2 10 2.22386 10 2.5V5.5H13C13.2761 5.5 13.5 5.72386 13.5 6C13.5 6.27614 13.2761 6.5 13 6.5H9.5C9.22386 6.5 9 6.27614 9 6V2.5C9 2.22386 9.22386 2 9.5 2Z" fill="currentColor"/>
<path id="Vector (Stroke)_3" fill-rule="evenodd" clip-rule="evenodd" d="M2.79289 2.29289C2.98043 2.10536 3.23478 2 3.5 2H9.5C9.63261 2 9.75979 2.05268 9.85355 2.14645L13.3536 5.64645C13.4473 5.74021 13.5 5.86739 13.5 6V14C13.5 14.2652 13.3946 14.5196 13.2071 14.7071C13.0196 14.8946 12.7652 15 12.5 15H12C11.7239 15 11.5 14.7761 11.5 14.5C11.5 14.2239 11.7239 14 12 14H12.5V6.20711L9.29289 3L3.5 3L3.5 9C3.5 9.27614 3.27614 9.5 3 9.5C2.72386 9.5 2.5 9.27614 2.5 9V3C2.5 2.73478 2.60536 2.48043 2.79289 2.29289Z" fill="currentColor"/>
</g>
</svg>
