<svg viewBox="0 0 80 80" fill="none" xmlns="http://www.w3.org/2000/svg">
  <path id="Vector (Stroke)" fill-rule="evenodd" clip-rule="evenodd" d="M13.9645 8.96447C14.9021 8.02679 16.1739 7.5 17.5 7.5H47.5C48.163 7.5 48.7989 7.76339 49.2678 8.23223L66.7678 25.7322C67.2366 26.2011 67.5 26.837 67.5 27.5V67.5C67.5 68.8261 66.9732 70.0978 66.0355 71.0355C65.0978 71.9732 63.8261 72.5 62.5 72.5H17.5C16.1739 72.5 14.9022 71.9732 13.9645 71.0355C13.0268 70.0979 12.5 68.8261 12.5 67.5V12.5C12.5 11.1739 13.0268 9.90215 13.9645 8.96447ZM46.4645 12.5L17.5 12.5L17.5 67.5H62.5V28.5355L46.4645 12.5Z" fill="currentColor"/>
  <path id="Vector (Stroke)_2" fill-rule="evenodd" clip-rule="evenodd" d="M47.5 7.5C48.8807 7.5 50 8.61929 50 10V25H65C66.3807 25 67.5 26.1193 67.5 27.5C67.5 28.8807 66.3807 30 65 30H47.5C46.1193 30 45 28.8807 45 27.5V10C45 8.61929 46.1193 7.5 47.5 7.5Z" fill="currentColor"/>
  <path id="Vector (Stroke)_3" fill-rule="evenodd" clip-rule="evenodd" d="M30 47.5C30 46.1193 31.1193 45 32.5 45H47.5C48.8807 45 50 46.1193 50 47.5C50 48.8807 48.8807 50 47.5 50H32.5C31.1193 50 30 48.8807 30 47.5Z" fill="currentColor"/>
</svg>
