<svg viewBox="0 0 80 80" fill="none" xmlns="http://www.w3.org/2000/svg">
  <g id="FileDotted">
    <path id="Vector" d="M25 70C25 70.663 24.7366 71.2989 24.2678 71.7678C23.7989 72.2366 23.163 72.5 22.5 72.5H17.5C16.1739 72.5 14.9021 71.9732 13.9645 71.0355C13.0268 70.0979 12.5 68.8261 12.5 67.5V57.5C12.5 56.837 12.7634 56.2011 13.2322 55.7322C13.7011 55.2634 14.337 55 15 55C15.663 55 16.2989 55.2634 16.7678 55.7322C17.2366 56.2011 17.5 56.837 17.5 57.5V67.5H22.5C23.163 67.5 23.7989 67.7634 24.2678 68.2322C24.7366 68.7011 25 69.337 25 70ZM25 7.5H17.5C16.1739 7.5 14.9021 8.02678 13.9645 8.96447C13.0268 9.90215 12.5 11.1739 12.5 12.5V20C12.5 20.663 12.7634 21.2989 13.2322 21.7678C13.7011 22.2366 14.337 22.5 15 22.5C15.663 22.5 16.2989 22.2366 16.7678 21.7678C17.2366 21.2989 17.5 20.663 17.5 20V12.5H25C25.663 12.5 26.2989 12.2366 26.7678 11.7678C27.2366 11.2989 27.5 10.663 27.5 10C27.5 9.33696 27.2366 8.70107 26.7678 8.23223C26.2989 7.76339 25.663 7.5 25 7.5ZM67.5 27.5C67.503 27.1676 67.4381 26.8382 67.3091 26.5319C67.1801 26.2255 66.9899 25.9488 66.75 25.7188L49.2812 8.21875H49.2188L49.0938 8.09375H49.0312L48.9062 8C48.875 7.96875 48.8438 7.96875 48.8438 7.9375L48.6875 7.84375H48.625L48.4688 7.75H48.4375L48.2188 7.65625H37.5C36.837 7.65625 36.2011 7.91964 35.7322 8.38848C35.2634 8.85732 35 9.49321 35 10.1562C35 10.8193 35.2634 11.4552 35.7322 11.924C36.2011 12.3929 36.837 12.6562 37.5 12.6562H45V27.5C45 28.163 45.2634 28.7989 45.7322 29.2678C46.2011 29.7366 46.837 30 47.5 30H62.5V42.5C62.5 43.163 62.7634 43.7989 63.2322 44.2678C63.7011 44.7366 64.337 45 65 45C65.663 45 66.2989 44.7366 66.7678 44.2678C67.2366 43.7989 67.5 43.163 67.5 42.5V27.5ZM65 52.5C64.337 52.5 63.7011 52.7634 63.2322 53.2322C62.7634 53.7011 62.5 54.337 62.5 55V67.5H60C59.337 67.5 58.7011 67.7634 58.2322 68.2322C57.7634 68.7011 57.5 69.337 57.5 70C57.5 70.663 57.7634 71.2989 58.2322 71.7678C58.7011 72.2366 59.337 72.5 60 72.5H62.5C63.8261 72.5 65.0979 71.9732 66.0355 71.0355C66.9732 70.0979 67.5 68.8261 67.5 67.5V55C67.5 54.337 67.2366 53.7011 66.7678 53.2322C66.2989 52.7634 65.663 52.5 65 52.5ZM15 47.5C15.663 47.5 16.2989 47.2366 16.7678 46.7678C17.2366 46.2989 17.5 45.663 17.5 45V32.5C17.5 31.837 17.2366 31.2011 16.7678 30.7322C16.2989 30.2634 15.663 30 15 30C14.337 30 13.7011 30.2634 13.2322 30.7322C12.7634 31.2011 12.5 31.837 12.5 32.5V45C12.5 45.663 12.7634 46.2989 13.2322 46.7678C13.7011 47.2366 14.337 47.5 15 47.5ZM47.5 67.5H35C34.337 67.5 33.7011 67.7634 33.2322 68.2322C32.7634 68.7011 32.5 69.337 32.5 70C32.5 70.663 32.7634 71.2989 33.2322 71.7678C33.7011 72.2366 34.337 72.5 35 72.5H47.5C48.163 72.5 48.7989 72.2366 49.2678 71.7678C49.7366 71.2989 50 70.663 50 70C50 69.337 49.7366 68.7011 49.2678 68.2322C48.7989 67.7634 48.163 67.5 47.5 67.5Z" fill="currentColor"/>
  </g>
</svg>
