<svg viewBox="0 0 16 17" fill="none" xmlns="http://www.w3.org/2000/svg">
<g id="FlowArrow">
<path id="Vector (Stroke)" fill-rule="evenodd" clip-rule="evenodd" d="M2.75 10.25C2.05964 10.25 1.5 10.8096 1.5 11.5C1.5 12.1904 2.05964 12.75 2.75 12.75C3.44036 12.75 4 12.1904 4 11.5C4 10.8096 3.44036 10.25 2.75 10.25ZM0.5 11.5C0.5 10.2574 1.50736 9.25 2.75 9.25C3.99264 9.25 5 10.2574 5 11.5C5 12.7426 3.99264 13.75 2.75 13.75C1.50736 13.75 0.5 12.7426 0.5 11.5Z" fill="currentColor"/>
<path id="Vector (Stroke)_2" fill-rule="evenodd" clip-rule="evenodd" d="M12.1464 2.64645C12.3417 2.45118 12.6583 2.45118 12.8536 2.64645L15.3536 5.14645C15.5488 5.34171 15.5488 5.65829 15.3536 5.85355L12.8536 8.35355C12.6583 8.54882 12.3417 8.54882 12.1464 8.35355C11.9512 8.15829 11.9512 7.84171 12.1464 7.64645L14.2929 5.5L12.1464 3.35355C11.9512 3.15829 11.9512 2.84171 12.1464 2.64645Z" fill="currentColor"/>
<path id="Vector (Stroke)_3" fill-rule="evenodd" clip-rule="evenodd" d="M11 6C10.337 6 9.70107 6.26339 9.23223 6.73223C8.76339 7.20107 8.5 7.83696 8.5 8.5C8.5 9.42826 8.13125 10.3185 7.47487 10.9749C6.8185 11.6313 5.92826 12 5 12H4.5C4.22386 12 4 11.7761 4 11.5C4 11.2239 4.22386 11 4.5 11H5C5.66304 11 6.29893 10.7366 6.76777 10.2678C7.23661 9.79893 7.5 9.16304 7.5 8.5C7.5 7.57174 7.86875 6.6815 8.52513 6.02513C9.1815 5.36875 10.0717 5 11 5H15C15.2761 5 15.5 5.22386 15.5 5.5C15.5 5.77614 15.2761 6 15 6H11Z" fill="currentColor"/>
</g>
</svg>
