<svg width="80" height="80" viewBox="0 0 80 80" fill="none" xmlns="http://www.w3.org/2000/svg">
<path fill-rule="evenodd" clip-rule="evenodd" d="M30 45C30 43.6193 31.1193 42.5 32.5 42.5H47.5C48.8807 42.5 50 43.6193 50 45C50 46.3807 48.8807 47.5 47.5 47.5H32.5C31.1193 47.5 30 46.3807 30 45Z" fill="currentColor"/>
<path fill-rule="evenodd" clip-rule="evenodd" d="M37.5 25C37.5 23.6193 38.6193 22.5 40 22.5H67.5C68.8261 22.5 70.0979 23.0268 71.0355 23.9645C71.9732 24.9022 72.5 26.1739 72.5 27.5V62.5C72.5 63.8261 71.9732 65.0978 71.0355 66.0355C70.0978 66.9732 68.8261 67.5 67.5 67.5H12.5C11.1739 67.5 9.90215 66.9732 8.96447 66.0355C8.02678 65.0979 7.5 63.8261 7.5 62.5V32.5C7.5 31.1193 8.61929 30 10 30C11.3807 30 12.5 31.1193 12.5 32.5V62.5H67.5V27.5H40C38.6193 27.5 37.5 26.3807 37.5 25Z" fill="currentColor"/>
<path fill-rule="evenodd" clip-rule="evenodd" d="M8.96447 16.4645C9.90215 15.5268 11.1739 15 12.5 15H29.1665C30.241 15.0044 31.2858 15.3527 32.148 15.9938L32.1552 15.9992L41.4989 22.9992C42.1291 23.4713 42.5 24.2126 42.5 25C42.5 25.7874 42.1291 26.5287 41.4989 27.0008L32.1552 34.0008L32.148 34.0062C31.2858 34.6473 30.241 34.9956 29.1665 35L29.1563 32.5V35H10C8.61929 35 7.5 33.8807 7.5 32.5V20C7.5 18.6739 8.02679 17.4021 8.96447 16.4645ZM29.147 30C29.153 29.9998 29.1588 29.9978 29.1638 29.9944C29.164 29.9942 29.1635 29.9946 29.1638 29.9944L35.8304 25L29.1645 20.0062C29.1642 20.006 29.1647 20.0063 29.1645 20.0062C29.1596 20.0027 29.153 20.0002 29.147 20L12.5 20L12.5 30H29.147Z" fill="currentColor"/>
</svg>
