<svg viewBox="0 0 16 17" fill="none" xmlns="http://www.w3.org/2000/svg">
  <g id="FolderNotchOpen">
    <path id="Vector (Stroke)" fill-rule="evenodd" clip-rule="evenodd"
      d="M1.79289 3.79289C1.98043 3.60536 2.23478 3.5 2.5 3.5H5.83331C6.0482 3.50088 6.25716 3.57054 6.4296 3.69877L6.43079 3.69965L8.1671 4.99877C8.16706 4.99874 8.16714 4.9988 8.1671 4.99877C8.1681 4.99947 8.16939 4.99996 8.1706 5H12.5C12.7652 5 13.0196 5.10536 13.2071 5.29289C13.3946 5.48043 13.5 5.73478 13.5 6V7.5C13.5 7.77614 13.2761 8 13 8C12.7239 8 12.5 7.77614 12.5 7.5V6H8.16669C7.9518 5.99912 7.74284 5.92946 7.5704 5.80123L7.56921 5.80035L5.8329 4.50123C5.83286 4.5012 5.83294 4.50126 5.8329 4.50123C5.83191 4.50053 5.83061 4.50004 5.8294 4.5L2.5 4.5L2.5 13.5C2.5 13.7761 2.27614 14 2 14C1.72386 14 1.5 13.7761 1.5 13.5V4.5C1.5 4.23478 1.60536 3.98043 1.79289 3.79289Z"
      fill="currentColor" />
    <path id="Vector (Stroke)_2" fill-rule="evenodd" clip-rule="evenodd"
      d="M9.15 7H14.3062C14.3062 7 14.3062 7 14.3062 7C14.4643 6.99999 14.6202 7.03748 14.761 7.10938C14.9019 7.18129 15.0236 7.28557 15.1164 7.41366C15.2091 7.54176 15.2701 7.69002 15.2944 7.84626C15.3187 8.00251 15.3056 8.16229 15.2562 8.3125L15.2556 8.31436L13.4743 13.6581C13.4063 13.8623 13.2152 14 13 14H2C1.83409 14 1.67898 13.9177 1.58597 13.7803C1.49295 13.6429 1.47415 13.4683 1.53576 13.3143L3.40991 8.62897C3.41007 8.62855 3.41023 8.62813 3.4104 8.62772C3.48407 8.44175 3.61216 8.28233 3.77793 8.17033C3.94353 8.05843 4.13902 7.99908 4.33885 8C4.33949 8 4.34012 8.00001 4.34076 8.00001L4.3375 8.5V8H4.33885H7.34562C7.3453 8.00002 7.34499 8.00003 7.34467 8.00003L7.35 8.5V8.0083L7.625 8.41875L7.35776 7.99616C7.35709 7.99658 7.35641 7.99697 7.3557 7.99733L8.59669 7.16587C8.60035 7.16341 8.60404 7.16101 8.60776 7.15866C8.76854 7.05699 8.95444 7.00206 9.14467 7.00003L9.15 7ZM7.35 8.00115V8H7.34562C7.34914 7.99983 7.35257 7.99892 7.3557 7.99733L7.35 8.00115ZM9.15438 8C9.15087 8.00017 9.14743 8.00108 9.1443 8.00267L7.90331 8.83413C7.89965 8.83659 7.89596 8.83899 7.89224 8.84134C7.73146 8.94302 7.54556 8.99794 7.35534 8.99997L7.35 9.00003L4.33852 9L2.73852 13H12.6396L14.3063 8H9.15438Z"
      fill="currentColor" />
  </g>
</svg>