<svg width="16" height="17" viewBox="0 0 16 17" fill="none" xmlns="http://www.w3.org/2000/svg">
<g id="FolderDotted">
<path id="Vector (Stroke)" fill-rule="evenodd" clip-rule="evenodd" d="M2 12C2.27614 12 2.5 12.2239 2.5 12.5V13H5.5C5.77614 13 6 13.2239 6 13.5C6 13.7761 5.77614 14 5.5 14H2.4625C2.3361 14 2.21094 13.9751 2.09417 13.9267C1.97739 13.8784 1.87129 13.8075 1.78191 13.7181C1.69253 13.6287 1.62164 13.5226 1.57327 13.4058C1.5249 13.2891 1.5 13.1639 1.5 13.0375V12.5C1.5 12.2239 1.72386 12 2 12Z" fill="currentColor"/>
<path id="Vector (Stroke)_2" fill-rule="evenodd" clip-rule="evenodd" d="M7.5 13.5C7.5 13.2239 7.72386 13 8 13H10C10.2761 13 10.5 13.2239 10.5 13.5C10.5 13.7761 10.2761 14 10 14H8C7.72386 14 7.5 13.7761 7.5 13.5Z" fill="currentColor"/>
<path id="Vector (Stroke)_3" fill-rule="evenodd" clip-rule="evenodd" d="M14 9.5C14.2761 9.5 14.5 9.72386 14.5 10V13.0562C14.5 13.3065 14.4006 13.5466 14.2236 13.7236C14.0466 13.9006 13.8065 14 13.5562 14H12.5C12.2239 14 12 13.7761 12 13.5C12 13.2239 12.2239 13 12.5 13H13.5V10C13.5 9.72386 13.7239 9.5 14 9.5Z" fill="currentColor"/>
<path id="Vector (Stroke)_4" fill-rule="evenodd" clip-rule="evenodd" d="M10 5.5C10 5.22386 10.2239 5 10.5 5H13.5C13.7652 5 14.0196 5.10536 14.2071 5.29289C14.3946 5.48043 14.5 5.73478 14.5 6V7.5C14.5 7.77614 14.2761 8 14 8C13.7239 8 13.5 7.77614 13.5 7.5L13.5 6L10.5 6C10.2239 6 10 5.77614 10 5.5Z" fill="currentColor"/>
<path id="Vector (Stroke)_5" fill-rule="evenodd" clip-rule="evenodd" d="M5.79289 4L6.79289 5H2.5L2.5 4L5.79289 4ZM5.79302 3C5.92335 2.99968 6.05247 3.025 6.17303 3.07451C6.2939 3.12416 6.4038 3.19715 6.49643 3.28933L6.49731 3.2902L8.35355 5.14645C8.49655 5.28945 8.53933 5.50451 8.46194 5.69134C8.38455 5.87818 8.20223 6 8 6H2C1.72386 6 1.5 5.77615 1.5 5.5V4C1.5 3.73479 1.60536 3.48043 1.79289 3.2929C1.98043 3.10536 2.23478 3 2.5 3H5.79302Z" fill="currentColor"/>
<path id="Vector (Stroke)_6" fill-rule="evenodd" clip-rule="evenodd" d="M2 7.5C2.27614 7.5 2.5 7.72386 2.5 8V10C2.5 10.2761 2.27614 10.5 2 10.5C1.72386 10.5 1.5 10.2761 1.5 10V8C1.5 7.72386 1.72386 7.5 2 7.5Z" fill="currentColor"/>
</g>
</svg>
