<svg viewBox="0 0 20 20" fill="none" xmlns="http://www.w3.org/2000/svg">
  <g id="Funnel">
    <path id="Vector (Stroke)" fill-rule="evenodd" clip-rule="evenodd"
      d="M3.28911 3.125C3.28904 3.125 3.28917 3.125 3.28911 3.125H16.711C16.9534 3.12508 17.1909 3.19567 17.3939 3.32818C17.597 3.46068 17.7571 3.64938 17.8548 3.87129C17.9525 4.0932 17.9836 4.33873 17.9442 4.57798C17.9049 4.81676 17.7971 5.039 17.634 5.21771C17.6337 5.21806 17.6334 5.2184 17.6331 5.21875L12.5 10.8674V15.2867C12.5014 15.4946 12.4505 15.6995 12.3521 15.8827C12.2539 16.0655 12.1114 16.2209 11.9376 16.3344L9.44011 17.9968L9.43758 17.9985C9.25002 18.122 9.03265 18.1928 8.80831 18.2032C8.58397 18.2137 8.36095 18.1636 8.1627 18.058C7.96445 17.9525 7.79829 17.7955 7.68169 17.6036C7.56509 17.4117 7.50235 17.1918 7.50008 16.9673L7.50001 16.9609L7.50005 10.8674L7.49839 10.8657L2.36704 5.21875C2.36676 5.21844 2.36648 5.21814 2.3662 5.21783C2.203 5.0391 2.0952 4.81682 2.0559 4.57798C2.01653 4.33873 2.04758 4.0932 2.14529 3.87129C2.24299 3.64938 2.40313 3.46068 2.60618 3.32818C2.8091 3.19576 3.04613 3.12517 3.28843 3.125M16.7108 4.375H3.28931L3.29072 4.37655L8.42114 10.0223C8.63453 10.2527 8.75216 10.5556 8.75005 10.8696V16.9546L11.25 15.2905L11.25 15.2891L11.25 10.8696C11.2479 10.5556 11.3656 10.2527 11.579 10.0223L16.7094 4.37655L16.7108 4.375Z"
      fill="currentColor" />
  </g>
</svg>