<svg width="20" height="20" viewBox="0 0 20 20" fill="none" xmlns="http://www.w3.org/2000/svg">
<path d="M15.625 5.90625V3.125C15.625 2.79348 15.4933 2.47554 15.2589 2.24112C15.0245 2.0067 14.7065 1.875 14.375 1.875H5.625C5.29348 1.875 4.97554 2.0067 4.74112 2.24112C4.5067 2.47554 4.375 2.79348 4.375 3.125V5.9375C4.3756 6.13145 4.42105 6.32263 4.50778 6.49611C4.59452 6.66958 4.7202 6.82065 4.875 6.9375L8.96094 10L4.875 13.0625C4.7202 13.1794 4.59452 13.3304 4.50778 13.5039C4.42105 13.6774 4.3756 13.8686 4.375 14.0625V16.875C4.375 17.2065 4.5067 17.5245 4.74112 17.7589C4.97554 17.9933 5.29348 18.125 5.625 18.125H14.375C14.7065 18.125 15.0245 17.9933 15.2589 17.7589C15.4933 17.5245 15.625 17.2065 15.625 16.875V14.0937C15.6244 13.8998 15.579 13.7086 15.4922 13.5351C15.4055 13.3617 15.2798 13.2106 15.125 13.0938L11.0391 10L15.125 6.90625C15.2798 6.7894 15.4055 6.63833 15.4922 6.46486C15.579 6.29138 15.6244 6.1002 15.625 5.90625V5.90625ZM14.375 3.125V5H5.625V3.125H14.375ZM14.375 16.875H5.625V14.0625L10 10.7812L14.375 14.0937V16.875Z" fill="currentColor"/>
</svg>
