<svg xmlns="http://www.w3.org/2000/svg" width="16" height="17" viewBox="0 0 16 17" fill="none">
  <path fill-rule="evenodd" clip-rule="evenodd" d="M9.2266 4.08719L7.99769 5.3161C7.80243 5.51136 7.48585 5.51136 7.29059 5.3161C7.09533 5.12083 7.09533 4.80425 7.29059 4.60899L8.52809 3.37149C8.53354 3.36603 8.53913 3.3607 8.54483 3.35551C9.16382 2.79133 9.97639 2.48735 10.8137 2.50673C11.651 2.52612 12.4486 2.86738 13.0408 3.45959C13.6331 4.05181 13.9743 4.84945 13.9937 5.68674C14.0131 6.52404 13.7091 7.33662 13.1449 7.95561C13.1395 7.96153 13.134 7.96732 13.1283 7.97297L11.3609 9.73418C11.3606 9.7344 11.3604 9.73462 11.3602 9.73484C11.059 10.037 10.7011 10.2768 10.307 10.4405C9.91268 10.6042 9.48989 10.6886 9.06289 10.6886C8.63589 10.6886 8.2131 10.6042 7.81876 10.4405C7.42442 10.2767 7.06629 10.0367 6.76493 9.73418C6.57003 9.53856 6.57062 9.22198 6.76625 9.02708C6.96188 8.83218 7.27846 8.83277 7.47335 9.0284C7.68181 9.23764 7.92953 9.40367 8.20231 9.51695C8.47508 9.63024 8.76753 9.68855 9.06289 9.68855C9.35825 9.68855 9.6507 9.63024 9.92347 9.51695C10.1962 9.40367 10.444 9.23764 10.6524 9.0284L10.6537 9.02711L12.4135 7.27352C12.7995 6.84569 13.0073 6.28624 12.994 5.70989C12.9805 5.12973 12.7441 4.57705 12.3337 4.1667C11.9234 3.75635 11.3707 3.5199 10.7905 3.50646C10.214 3.49312 9.65447 3.70101 9.2266 4.08719Z" fill="currentColor"/>
  <path fill-rule="evenodd" clip-rule="evenodd" d="M6.93754 7.31152C6.64218 7.31152 6.34973 7.36984 6.07696 7.48312C5.80419 7.59641 5.55647 7.76243 5.34801 7.97167L5.34672 7.97296L5.34672 7.97296L3.58691 9.72656C3.20091 10.1544 2.99312 10.7138 3.00646 11.2902C3.0199 11.8703 3.25635 12.423 3.6667 12.8334C4.07705 13.2437 4.62973 13.4802 5.20989 13.4936C5.78639 13.507 6.34597 13.2991 6.77383 12.9129L8.00274 11.684C8.198 11.4887 8.51458 11.4887 8.70985 11.684C8.90511 11.8792 8.90511 12.1958 8.70985 12.3911L7.47235 13.6286C7.46689 13.634 7.46131 13.6394 7.45561 13.6446C6.83662 14.2087 6.02404 14.5127 5.18674 14.4933C4.34945 14.474 3.55181 14.1327 2.95959 13.5405C2.36738 12.9483 2.02612 12.1506 2.00673 11.3133C1.98735 10.476 2.29133 9.66346 2.85551 9.04447C2.8609 9.03855 2.86644 9.03276 2.87212 9.0271L4.63958 7.26589C4.6398 7.26566 4.64003 7.26544 4.64025 7.26521C4.94148 6.96304 5.29937 6.72325 5.69341 6.5596C6.08775 6.39583 6.51055 6.31152 6.93754 6.31152C7.36454 6.31152 7.78733 6.39583 8.18167 6.5596C8.57601 6.72338 8.93414 6.96339 9.23551 7.26589C9.4304 7.46152 9.42981 7.7781 9.23418 7.973C9.03856 8.16789 8.72197 8.1673 8.52708 7.97167C8.31862 7.76243 8.0709 7.59641 7.79813 7.48312C7.52536 7.36984 7.2329 7.31152 6.93754 7.31152Z" fill="currentColor"/>
</svg>