<svg xmlns="http://www.w3.org/2000/svg" width="80" height="80" viewBox="0 0 80 80" fill="none">
  <path fill-rule="evenodd" clip-rule="evenodd" d="M30 12.5C31.3807 12.5 32.5 13.6193 32.5 15V22.5C32.5 23.8807 31.3807 25 30 25C28.6193 25 27.5 23.8807 27.5 22.5V15C27.5 13.6193 28.6193 12.5 30 12.5Z" fill="currentColor"/>
  <path fill-rule="evenodd" clip-rule="evenodd" d="M50 55C51.3807 55 52.5 56.1193 52.5 57.5V65C52.5 66.3807 51.3807 67.5 50 67.5C48.6193 67.5 47.5 66.3807 47.5 65V57.5C47.5 56.1193 48.6193 55 50 55Z" fill="currentColor"/>
  <path fill-rule="evenodd" clip-rule="evenodd" d="M12.5 30C12.5 28.6193 13.6193 27.5 15 27.5H22.5C23.8807 27.5 25 28.6193 25 30C25 31.3807 23.8807 32.5 22.5 32.5H15C13.6193 32.5 12.5 31.3807 12.5 30Z" fill="currentColor"/>
  <path fill-rule="evenodd" clip-rule="evenodd" d="M55 50C55 48.6193 56.1193 47.5 57.5 47.5H65C66.3807 47.5 67.5 48.6193 67.5 50C67.5 51.3807 66.3807 52.5 65 52.5H57.5C56.1193 52.5 55 51.3807 55 50Z" fill="currentColor"/>
  <path fill-rule="evenodd" clip-rule="evenodd" d="M23.9554 38.3572C24.9317 39.3335 24.9317 40.9165 23.9554 41.8928L20.4241 45.424C18.5475 47.3007 17.4932 49.846 17.4932 52.5C17.4932 53.8141 17.752 55.1154 18.2549 56.3295C18.7578 57.5436 19.4949 58.6468 20.4241 59.576C21.3534 60.5052 22.4565 61.2423 23.6706 61.7452C24.8847 62.2481 26.186 62.507 27.5001 62.507C30.1541 62.507 32.6994 61.4527 34.5761 59.576L38.1073 56.0447C39.0837 55.0684 40.6666 55.0684 41.6429 56.0447C42.6192 57.021 42.6192 58.604 41.6429 59.5803L38.1116 63.1115C35.2973 65.9259 31.4802 67.507 27.5001 67.507C25.5294 67.507 23.5779 67.1188 21.7572 66.3646C19.9365 65.6104 18.2821 64.505 16.8886 63.1115C15.4951 61.718 14.3897 60.0636 13.6355 58.2429C12.8813 56.4222 12.4932 54.4707 12.4932 52.5C12.4932 48.5199 14.0742 44.7028 16.8886 41.8885L20.4198 38.3572C21.3962 37.3809 22.9791 37.3809 23.9554 38.3572Z" fill="currentColor"/>
  <path fill-rule="evenodd" clip-rule="evenodd" d="M41.8885 16.8886C44.7028 14.0742 48.5199 12.4932 52.5 12.4932C56.4801 12.4932 60.2972 14.0742 63.1115 16.8886C65.9259 19.7029 67.507 23.52 67.507 27.5001C67.507 31.4802 65.9259 35.2973 63.1115 38.1116L59.5803 41.6429C58.604 42.6192 57.021 42.6192 56.0447 41.6429C55.0684 40.6666 55.0684 39.0837 56.0447 38.1073L59.576 34.5761C61.4527 32.6994 62.507 30.1541 62.507 27.5001C62.507 24.8461 61.4527 22.3008 59.576 20.4241C57.6993 18.5475 55.154 17.4932 52.5 17.4932C49.846 17.4932 47.3007 18.5475 45.424 20.4241L41.8928 23.9554C40.9165 24.9317 39.3335 24.9317 38.3572 23.9554C37.3809 22.9791 37.3809 21.3962 38.3572 20.4198L41.8885 16.8886Z" fill="currentColor"/>
</svg>