<svg xmlns="http://www.w3.org/2000/svg" width="41" height="40" viewBox="0 0 41 40" fill="none">
  <path fill-rule="evenodd" clip-rule="evenodd" d="M20.5 3.75C21.1904 3.75 21.75 4.30964 21.75 5V10C21.75 10.6904 21.1904 11.25 20.5 11.25C19.8096 11.25 19.25 10.6904 19.25 10V5C19.25 4.30964 19.8096 3.75 20.5 3.75Z" fill="currentColor"/>
  <path fill-rule="evenodd" clip-rule="evenodd" d="M29.25 20C29.25 19.3096 29.8096 18.75 30.5 18.75H35.5C36.1904 18.75 36.75 19.3096 36.75 20C36.75 20.6904 36.1904 21.25 35.5 21.25H30.5C29.8096 21.25 29.25 20.6904 29.25 20Z" fill="currentColor"/>
  <path fill-rule="evenodd" clip-rule="evenodd" d="M26.6864 26.1864C27.1746 25.6983 27.966 25.6983 28.4542 26.1864L31.9901 29.7224C32.4783 30.2105 32.4783 31.002 31.9901 31.4901C31.502 31.9783 30.7105 31.9783 30.2224 31.4901L26.6864 27.9542C26.1983 27.466 26.1983 26.6746 26.6864 26.1864Z" fill="currentColor"/>
  <path fill-rule="evenodd" clip-rule="evenodd" d="M20.5 28.75C21.1904 28.75 21.75 29.3096 21.75 30V35C21.75 35.6904 21.1904 36.25 20.5 36.25C19.8096 36.25 19.25 35.6904 19.25 35V30C19.25 29.3096 19.8096 28.75 20.5 28.75Z" fill="currentColor"/>
  <path fill-rule="evenodd" clip-rule="evenodd" d="M14.3134 26.1864C14.8015 26.6746 14.8015 27.466 14.3134 27.9542L10.7774 31.4901C10.2893 31.9783 9.49783 31.9783 9.00967 31.4901C8.52152 31.002 8.52152 30.2105 9.00967 29.7224L12.5456 26.1864C13.0338 25.6983 13.8252 25.6983 14.3134 26.1864Z" fill="currentColor"/>
  <path fill-rule="evenodd" clip-rule="evenodd" d="M4.25 20C4.25 19.3096 4.80964 18.75 5.5 18.75H10.5C11.1904 18.75 11.75 19.3096 11.75 20C11.75 20.6904 11.1904 21.25 10.5 21.25H5.5C4.80964 21.25 4.25 20.6904 4.25 20Z" fill="currentColor"/>
  <path fill-rule="evenodd" clip-rule="evenodd" d="M9.00967 8.51065C9.49783 8.02249 10.2893 8.02249 10.7774 8.51065L14.3134 12.0466C14.8015 12.5347 14.8015 13.3262 14.3134 13.8144C13.8252 14.3025 13.0338 14.3025 12.5456 13.8144L9.00967 10.2784C8.52152 9.79026 8.52152 8.9988 9.00967 8.51065Z" fill="currentColor"/>
</svg>