<svg viewBox="0 0 16 17" fill="none" xmlns="http://www.w3.org/2000/svg">
<g id="LockLaminatedOpen">
<path id="Vector (Stroke)" fill-rule="evenodd" clip-rule="evenodd" d="M2 8C2 7.72386 2.22386 7.5 2.5 7.5H13.5C13.7761 7.5 14 7.72386 14 8C14 8.27614 13.7761 8.5 13.5 8.5H2.5C2.22386 8.5 2 8.27614 2 8Z" fill="currentColor"/>
<path id="Vector (Stroke)_2" fill-rule="evenodd" clip-rule="evenodd" d="M2 10C2 9.72386 2.22386 9.5 2.5 9.5H13.5C13.7761 9.5 14 9.72386 14 10C14 10.2761 13.7761 10.5 13.5 10.5H2.5C2.22386 10.5 2 10.2761 2 10Z" fill="currentColor"/>
<path id="Vector (Stroke)_3" fill-rule="evenodd" clip-rule="evenodd" d="M2 12C2 11.7239 2.22386 11.5 2.5 11.5H13.5C13.7761 11.5 14 11.7239 14 12C14 12.2761 13.7761 12.5 13.5 12.5H2.5C2.22386 12.5 2 12.2761 2 12Z" fill="currentColor"/>
<path id="Vector (Stroke)_4" fill-rule="evenodd" clip-rule="evenodd" d="M2 6.5C2 5.94772 2.44772 5.5 3 5.5H13C13.5523 5.5 14 5.94772 14 6.5V13.5C14 14.0523 13.5523 14.5 13 14.5H3C2.44772 14.5 2 14.0523 2 13.5V6.5ZM13 6.5H3V13.5H13V6.5Z" fill="currentColor"/>
<path id="Vector (Stroke)_5" fill-rule="evenodd" clip-rule="evenodd" d="M8 2C7.53587 2 7.09075 2.18437 6.76256 2.51256C6.43437 2.84075 6.25 3.28587 6.25 3.75V6C6.25 6.27614 6.02614 6.5 5.75 6.5C5.47386 6.5 5.25 6.27614 5.25 6V3.75C5.25 3.02065 5.53973 2.32118 6.05546 1.80546C6.57118 1.28973 7.27065 1 8 1C8.72935 1 9.42882 1.28973 9.94454 1.80546C10.4603 2.32118 10.75 3.02065 10.75 3.75C10.75 4.02614 10.5261 4.25 10.25 4.25C9.97386 4.25 9.75 4.02614 9.75 3.75C9.75 3.28587 9.56563 2.84075 9.23744 2.51256C8.90925 2.18437 8.46413 2 8 2Z" fill="currentColor"/>
</g>
</svg>
