<svg width="16" height="16" viewBox="0 0 16 16" fill="none" xmlns="http://www.w3.org/2000/svg">
<path fill-rule="evenodd" clip-rule="evenodd" d="M4.25 10.5C3.55964 10.5 3 11.0596 3 11.75C3 12.4404 3.55964 13 4.25 13C4.94036 13 5.5 12.4404 5.5 11.75C5.5 11.0596 4.94036 10.5 4.25 10.5ZM2 11.75C2 10.5074 3.00736 9.5 4.25 9.5C5.49264 9.5 6.5 10.5074 6.5 11.75C6.5 12.9926 5.49264 14 4.25 14C3.00736 14 2 12.9926 2 11.75Z" fill="currentColor"/>
<path fill-rule="evenodd" clip-rule="evenodd" d="M4.25 3C3.55964 3 3 3.55964 3 4.25C3 4.94036 3.55964 5.5 4.25 5.5C4.94036 5.5 5.5 4.94036 5.5 4.25C5.5 3.55964 4.94036 3 4.25 3ZM2 4.25C2 3.00736 3.00736 2 4.25 2C5.49264 2 6.5 3.00736 6.5 4.25C6.5 5.49264 5.49264 6.5 4.25 6.5C3.00736 6.5 2 5.49264 2 4.25Z" fill="currentColor"/>
<path fill-rule="evenodd" clip-rule="evenodd" d="M4.25 5.5C4.52614 5.5 4.75 5.72386 4.75 6V10C4.75 10.2761 4.52614 10.5 4.25 10.5C3.97386 10.5 3.75 10.2761 3.75 10V6C3.75 5.72386 3.97386 5.5 4.25 5.5Z" fill="currentColor"/>
<path fill-rule="evenodd" clip-rule="evenodd" d="M11.75 10.5C11.0596 10.5 10.5 11.0596 10.5 11.75C10.5 12.4404 11.0596 13 11.75 13C12.4404 13 13 12.4404 13 11.75C13 11.0596 12.4404 10.5 11.75 10.5ZM9.5 11.75C9.5 10.5074 10.5074 9.5 11.75 9.5C12.9926 9.5 14 10.5074 14 11.75C14 12.9926 12.9926 14 11.75 14C10.5074 14 9.5 12.9926 9.5 11.75Z" fill="currentColor"/>
<path fill-rule="evenodd" clip-rule="evenodd" d="M8.14645 2.64645C8.34171 2.45118 8.65829 2.45118 8.85355 2.64645L11.2223 5.0152C11.8791 5.67265 12.2487 6.56377 12.25 7.49307L12.25 7.49375L12.25 10C12.25 10.2761 12.0261 10.5 11.75 10.5C11.4739 10.5 11.25 10.2761 11.25 10V7.49409C11.249 6.82948 10.9847 6.19232 10.515 5.72212L8.14645 3.35355C7.95118 3.15829 7.95118 2.84171 8.14645 2.64645Z" fill="currentColor"/>
<path fill-rule="evenodd" clip-rule="evenodd" d="M8 3C8 2.72386 8.22386 2.5 8.5 2.5H11C11.2761 2.5 11.5 2.72386 11.5 3C11.5 3.27614 11.2761 3.5 11 3.5H9V5.5C9 5.77614 8.77614 6 8.5 6C8.22386 6 8 5.77614 8 5.5V3Z" fill="currentColor"/>
</svg>
