<svg viewBox="0 0 20 20" fill="none" xmlns="http://www.w3.org/2000/svg">
  <g id="Notepad">
    <path id="Vector (Stroke)" fill-rule="evenodd" clip-rule="evenodd"
      d="M6.875 10C6.875 9.65482 7.15482 9.375 7.5 9.375H12.5C12.8452 9.375 13.125 9.65482 13.125 10C13.125 10.3452 12.8452 10.625 12.5 10.625H7.5C7.15482 10.625 6.875 10.3452 6.875 10Z"
      fill="currentColor" />
    <path id="Vector (Stroke)_2" fill-rule="evenodd" clip-rule="evenodd"
      d="M6.875 12.5C6.875 12.1548 7.15482 11.875 7.5 11.875H12.5C12.8452 11.875 13.125 12.1548 13.125 12.5C13.125 12.8452 12.8452 13.125 12.5 13.125H7.5C7.15482 13.125 6.875 12.8452 6.875 12.5Z"
      fill="currentColor" />
    <path id="Vector (Stroke)_3" fill-rule="evenodd" clip-rule="evenodd"
      d="M3.49112 2.86612C3.72554 2.6317 4.04348 2.5 4.375 2.5H15.625C15.9565 2.5 16.2745 2.6317 16.5089 2.86612C16.7433 3.10054 16.875 3.41848 16.875 3.75V15.625C16.875 16.288 16.6116 16.9239 16.1428 17.3928C15.6739 17.8616 15.038 18.125 14.375 18.125H5.625C4.96196 18.125 4.32607 17.8616 3.85723 17.3928C3.38839 16.9239 3.125 16.288 3.125 15.625V3.75C3.125 3.41848 3.2567 3.10054 3.49112 2.86612ZM4.375 3.75L4.375 15.625C4.375 15.9565 4.5067 16.2745 4.74112 16.5089C4.97554 16.7433 5.29348 16.875 5.625 16.875H14.375C14.7065 16.875 15.0245 16.7433 15.2589 16.5089C15.4933 16.2745 15.625 15.9565 15.625 15.625V3.75L4.375 3.75Z"
      fill="currentColor" />
    <path id="Vector (Stroke)_4" fill-rule="evenodd" clip-rule="evenodd"
      d="M6.25 1.25C6.59518 1.25 6.875 1.52982 6.875 1.875V4.375C6.875 4.72018 6.59518 5 6.25 5C5.90482 5 5.625 4.72018 5.625 4.375V1.875C5.625 1.52982 5.90482 1.25 6.25 1.25Z"
      fill="currentColor" />
    <path id="Vector (Stroke)_5" fill-rule="evenodd" clip-rule="evenodd"
      d="M10 1.25C10.3452 1.25 10.625 1.52982 10.625 1.875V4.375C10.625 4.72018 10.3452 5 10 5C9.65482 5 9.375 4.72018 9.375 4.375V1.875C9.375 1.52982 9.65482 1.25 10 1.25Z"
      fill="currentColor" />
    <path id="Vector (Stroke)_6" fill-rule="evenodd" clip-rule="evenodd"
      d="M13.75 1.25C14.0952 1.25 14.375 1.52982 14.375 1.875V4.375C14.375 4.72018 14.0952 5 13.75 5C13.4048 5 13.125 4.72018 13.125 4.375V1.875C13.125 1.52982 13.4048 1.25 13.75 1.25Z"
      fill="currentColor" />
  </g>
</svg>