<svg viewBox="0 0 80 80" fill="none" xmlns="http://www.w3.org/2000/svg">
<g id="PaperPlaneTilt">
<path id="Vector (Stroke)" fill-rule="evenodd" clip-rule="evenodd" d="M65.031 8.81521C65.8824 8.56891 66.7843 8.55481 67.6431 8.7745C68.5067 8.9954 69.2949 9.44454 69.9252 10.0748C70.5555 10.7051 71.0046 11.4933 71.2255 12.3569C71.4452 13.2158 71.4311 14.1178 71.1847 14.9692L54.7865 73.1906C54.7855 73.1941 54.7845 73.1977 54.7836 73.2012C54.5113 74.1886 53.9423 75.0687 53.1534 75.7222C52.3617 76.3781 51.3871 76.774 50.3622 76.856C49.3374 76.938 48.3122 76.7021 47.4263 76.1804C46.5468 75.6625 45.8471 74.888 45.4208 73.961L32.7724 47.2276L6.03894 34.5792C5.11202 34.1529 4.33751 33.4532 3.81962 32.5737C3.29792 31.6878 3.06199 30.6626 3.14398 29.6378C3.22597 28.613 3.62188 27.6383 4.27779 26.8466C4.93132 26.0578 5.81129 25.4888 6.7986 25.2165C6.80221 25.2155 6.80582 25.2145 6.80943 25.2135L65.031 8.81521ZM65.7187 11.2188L66.3932 13.6134C66.3964 13.6158 66.4001 13.6175 66.404 13.6185C66.4094 13.6199 66.4152 13.6198 66.4205 13.6183L65.7187 11.2188ZM66.3664 13.6336L8.12816 30.0366L8.16294 30.0527L34.9053 42.7053C35.958 43.196 36.804 44.042 37.2947 45.0947L49.9473 71.8371L49.9635 71.872L49.9685 71.8535L66.3664 13.6336Z" fill="currentColor"/>
<path id="Vector (Stroke)_2" fill-rule="evenodd" clip-rule="evenodd" d="M50.549 29.451C51.5253 30.4273 51.5253 32.0102 50.549 32.9865L36.424 47.1115C35.4477 48.0878 33.8648 48.0878 32.8885 47.1115C31.9122 46.1352 31.9122 44.5523 32.8885 43.576L47.0135 29.451C47.9898 28.4747 49.5727 28.4747 50.549 29.451Z" fill="currentColor"/>
</g>
</svg>
