<svg viewBox="0 0 16 17" fill="none" xmlns="http://www.w3.org/2000/svg">
  <g id="PencilSimpleLine">
    <path id="Vector (Stroke)" fill-rule="evenodd" clip-rule="evenodd"
      d="M10.1138 2.28462C10.2361 2.23341 10.3674 2.20703 10.5 2.20703C10.6326 2.20703 10.7639 2.23341 10.8862 2.28462C11.0078 2.33554 11.1182 2.41 11.2109 2.50371L13.9962 5.28907C14.0899 5.38178 14.1644 5.49212 14.2153 5.61373C14.2665 5.73605 14.2929 5.86733 14.2929 5.99995C14.2929 6.13256 14.2665 6.26384 14.2153 6.38616C14.1644 6.50776 14.09 6.61809 13.9963 6.7108L6.35355 14.3535C6.25979 14.4473 6.13261 14.4999 6 14.4999H3C2.73478 14.4999 2.48043 14.3946 2.29289 14.2071C2.10536 14.0195 2 13.7652 2 13.4999V10.7069M10.1138 2.28462C9.99216 2.33555 9.88181 2.41002 9.78909 2.50375L10.1138 2.28462ZM3 10.7071V13.4999H5.79289L13.2929 5.99993L13.2902 5.99726L10.5 3.20704L10.4973 3.20976L3 10.7071Z"
      fill="currentColor" />
    <path id="Vector (Stroke)_2" fill-rule="evenodd" clip-rule="evenodd"
      d="M5.5 14C5.5 13.7239 5.72386 13.5 6 13.5H13.5C13.7761 13.5 14 13.7239 14 14C14 14.2761 13.7761 14.5 13.5 14.5H6C5.72386 14.5 5.5 14.2761 5.5 14Z"
      fill="currentColor" />
    <path id="Vector (Stroke)_3" fill-rule="evenodd" clip-rule="evenodd"
      d="M8.14645 4.14645C8.34171 3.95118 8.65829 3.95118 8.85355 4.14645L12.3536 7.64645C12.5488 7.84171 12.5488 8.15829 12.3536 8.35355C12.1583 8.54882 11.8417 8.54882 11.6464 8.35355L8.14645 4.85355C7.95118 4.65829 7.95118 4.34171 8.14645 4.14645Z"
      fill="currentColor" />
  </g>
</svg>