<svg width="80" height="80" viewBox="0 0 80 80" fill="none" xmlns="http://www.w3.org/2000/svg">
<g id="PlugsConnected">
<path id="Vector (Stroke)" fill-rule="evenodd" clip-rule="evenodd" d="M26.7678 53.2322C27.7441 54.2085 27.7441 55.7915 26.7678 56.7678L9.26777 74.2678C8.29146 75.2441 6.70854 75.2441 5.73223 74.2678C4.75592 73.2915 4.75592 71.7085 5.73223 70.7322L23.2322 53.2322C24.2085 52.2559 25.7915 52.2559 26.7678 53.2322Z" fill="currentColor"/>
<path id="Vector (Stroke)_2" fill-rule="evenodd" clip-rule="evenodd" d="M74.2678 5.73223C75.2441 6.70854 75.2441 8.29146 74.2678 9.26777L56.7678 26.7678C55.7915 27.7441 54.2085 27.7441 53.2322 26.7678C52.2559 25.7915 52.2559 24.2085 53.2322 23.2322L70.7322 5.73223C71.7085 4.75592 73.2915 4.75592 74.2678 5.73223Z" fill="currentColor"/>
<path id="Vector (Stroke)_3" fill-rule="evenodd" clip-rule="evenodd" d="M23.3234 42.7179C21.3708 44.6705 21.3708 47.8363 23.3234 49.789L30.2177 56.6832C32.1703 58.6359 35.3361 58.6359 37.2888 56.6832L56.69 37.282C58.6426 35.3294 58.6426 32.1636 56.69 30.2109L49.7957 23.3166C47.8431 21.364 44.6773 21.364 42.7246 23.3166L23.3234 42.7179ZM19.7879 53.3245C15.8826 49.4192 15.8826 43.0876 19.7879 39.1824L39.1891 19.7811C43.0944 15.8759 49.426 15.8759 53.3312 19.7811L60.2255 26.6754C64.1308 30.5806 64.1308 36.9123 60.2255 40.8175L40.8243 60.2188C36.919 64.124 30.5874 64.124 26.6822 60.2188L19.7879 53.3245Z" fill="currentColor"/>
<path id="Vector (Stroke)_4" fill-rule="evenodd" clip-rule="evenodd" d="M26.9822 26.9822C27.9585 26.0059 29.5415 26.0059 30.5178 26.9822L53.0178 49.4822C53.9941 50.4585 53.9941 52.0415 53.0178 53.0178C52.0415 53.9941 50.4585 53.9941 49.4822 53.0178L26.9822 30.5178C26.0059 29.5415 26.0059 27.9585 26.9822 26.9822Z" fill="currentColor"/>
<path id="Vector (Stroke)_5" fill-rule="evenodd" clip-rule="evenodd" d="M60.129 46.7094C60.5656 45.3995 61.9814 44.6916 63.2912 45.1282L70.7912 47.6282C72.1011 48.0649 72.809 49.4807 72.3724 50.7905C71.9358 52.1004 70.52 52.8083 69.2101 52.3717L61.7101 49.8717C60.4003 49.435 59.6924 48.0192 60.129 46.7094Z" fill="currentColor"/>
<path id="Vector (Stroke)_6" fill-rule="evenodd" clip-rule="evenodd" d="M7.62897 29.2094C8.06559 27.8995 9.48139 27.1916 10.7912 27.6282L18.2912 30.1282C19.6011 30.5649 20.309 31.9807 19.8724 33.2905C19.4358 34.6004 18.02 35.3083 16.7101 34.8717L9.21011 32.3717C7.90025 31.935 7.19235 30.5192 7.62897 29.2094Z" fill="currentColor"/>
<path id="Vector (Stroke)_7" fill-rule="evenodd" clip-rule="evenodd" d="M29.2101 7.62824C30.52 7.19162 31.9358 7.89952 32.3724 9.20938L34.8724 16.7094C35.309 18.0192 34.6011 19.435 33.2912 19.8717C31.9814 20.3083 30.5656 19.6004 30.129 18.2905L27.629 10.7905C27.1924 9.48066 27.9003 8.06486 29.2101 7.62824Z" fill="currentColor"/>
<path id="Vector (Stroke)_8" fill-rule="evenodd" clip-rule="evenodd" d="M46.7101 60.1282C48.02 59.6916 49.4358 60.3995 49.8724 61.7094L52.3724 69.2094C52.809 70.5192 52.1011 71.935 50.7912 72.3717C49.4814 72.8083 48.0656 72.1004 47.629 70.7905L45.129 63.2905C44.6924 61.9807 45.4003 60.5649 46.7101 60.1282Z" fill="currentColor"/>
</g>
</svg>
