<svg width="80" height="81" viewBox="0 0 80 81" fill="none" xmlns="http://www.w3.org/2000/svg">
<g id="Plugs">
<path id="Vector (Stroke)" fill-rule="evenodd" clip-rule="evenodd" d="M25.5179 37.4822C26.4942 38.4585 26.4942 40.0415 25.5179 41.0178L15.8273 50.7083C15.3612 51.1729 14.9913 51.7248 14.739 52.3326C14.4866 52.9403 14.3567 53.5919 14.3567 54.25C14.3567 54.9081 14.4866 55.5597 14.739 56.1674C14.9913 56.7752 15.3612 57.3272 15.8273 57.7917L15.8304 57.7947L22.7084 64.6728C23.173 65.1389 23.7249 65.5088 24.3327 65.7612C24.9404 66.0135 25.592 66.1434 26.2501 66.1434C26.9082 66.1434 27.5598 66.0135 28.1675 65.7612C28.7753 65.5088 29.3272 65.1389 29.7918 64.6728L39.4823 54.9822C40.4586 54.0059 42.0416 54.0059 43.0179 54.9822C43.9942 55.9585 43.9942 57.5415 43.0179 58.5178L33.3334 68.2022C33.3329 68.2027 33.3339 68.2017 33.3334 68.2022C32.4047 69.1338 31.2998 69.8744 30.085 70.3789C28.8694 70.8836 27.5662 71.1434 26.2501 71.1434C24.934 71.1434 23.6308 70.8836 22.4153 70.3789C21.2004 69.8744 20.097 69.1352 19.1682 68.2037C19.1677 68.2032 19.1687 68.2041 19.1682 68.2037L12.2979 61.3333C12.2973 61.3327 12.2985 61.3339 12.2979 61.3333C11.3665 60.4047 10.6256 59.2996 10.1212 58.0849C9.6165 56.8693 9.35669 55.5661 9.35669 54.25C9.35669 52.9339 9.6165 51.6307 10.1212 50.4151C10.6256 49.2004 11.3647 48.0971 12.2961 47.1684C12.2967 47.1678 12.2973 47.1673 12.2979 47.1667L21.9823 37.4822C22.9586 36.5059 24.5416 36.5059 25.5179 37.4822Z" fill="currentColor"/>
<path id="Vector (Stroke)_2" fill-rule="evenodd" clip-rule="evenodd" d="M19.2678 61.2322C20.2441 62.2085 20.2441 63.7915 19.2678 64.7678L9.26777 74.7678C8.29146 75.7441 6.70854 75.7441 5.73223 74.7678C4.75592 73.7915 4.75592 72.2085 5.73223 71.2322L15.7322 61.2322C16.7085 60.2559 18.2915 60.2559 19.2678 61.2322Z" fill="currentColor"/>
<path id="Vector (Stroke)_3" fill-rule="evenodd" clip-rule="evenodd" d="M74.2678 6.23223C75.2441 7.20854 75.2441 8.79146 74.2678 9.76777L64.2678 19.7678C63.2915 20.7441 61.7085 20.7441 60.7322 19.7678C59.7559 18.7915 59.7559 17.2085 60.7322 16.2322L70.7322 6.23223C71.7085 5.25592 73.2915 5.25592 74.2678 6.23223Z" fill="currentColor"/>
<path id="Vector (Stroke)_4" fill-rule="evenodd" clip-rule="evenodd" d="M46.7678 43.7322C47.7441 44.7085 47.7441 46.2915 46.7678 47.2678L39.2678 54.7678C38.2915 55.7441 36.7085 55.7441 35.7322 54.7678C34.7559 53.7915 34.7559 52.2085 35.7322 51.2322L43.2322 43.7322C44.2085 42.7559 45.7915 42.7559 46.7678 43.7322Z" fill="currentColor"/>
<path id="Vector (Stroke)_5" fill-rule="evenodd" clip-rule="evenodd" d="M36.7678 33.7322C37.7441 34.7085 37.7441 36.2915 36.7678 37.2678L29.2678 44.7678C28.2915 45.7441 26.7085 45.7441 25.7322 44.7678C24.7559 43.7915 24.7559 42.2085 25.7322 41.2322L33.2322 33.7322C34.2085 32.7559 35.7915 32.7559 36.7678 33.7322Z" fill="currentColor"/>
<path id="Vector (Stroke)_6" fill-rule="evenodd" clip-rule="evenodd" d="M49.9151 10.6212C51.1307 10.1165 52.4339 9.85669 53.75 9.85669C55.0661 9.85669 56.3693 10.1165 57.5849 10.6212C58.7996 11.1256 59.9029 11.8647 60.8316 12.7961C60.831 12.7955 60.8322 12.7967 60.8316 12.7961L67.7022 19.6668C67.7017 19.6663 67.7027 19.6673 67.7022 19.6668C68.6338 20.5955 69.3744 21.7004 69.8789 22.9153C70.3836 24.1308 70.6434 25.434 70.6434 26.7501C70.6434 28.0662 70.3836 29.3694 69.8789 30.585C69.3744 31.7998 68.6352 32.9032 67.7037 33.832C67.7032 33.8325 67.7042 33.8315 67.7037 33.832L58.0178 43.5179C57.0415 44.4942 55.4585 44.4942 54.4822 43.5179C53.5059 42.5416 53.5059 40.9586 54.4822 39.9823L64.1728 30.2918C64.6389 29.8272 65.0088 29.2753 65.2612 28.6675C65.5135 28.0598 65.6434 27.4082 65.6434 26.7501C65.6434 26.092 65.5135 25.4404 65.2612 24.8327C65.0088 24.2249 64.6389 23.673 64.1728 23.2084L57.2917 16.3273C56.8272 15.8612 56.2752 15.4913 55.6674 15.239C55.0597 14.9866 54.4081 14.8567 53.75 14.8567C53.0919 14.8567 52.4403 14.9866 51.8326 15.239C51.2248 15.4913 50.6729 15.8612 50.2083 16.3273L40.5178 26.0179C39.5415 26.9942 37.9585 26.9942 36.9822 26.0179C36.0059 25.0416 36.0059 23.4586 36.9822 22.4823L46.6667 12.7979C46.6673 12.7973 46.6678 12.7967 46.6684 12.7961C47.5971 11.8647 48.7004 11.1256 49.9151 10.6212Z" fill="currentColor"/>
<path id="Vector (Stroke)_7" fill-rule="evenodd" clip-rule="evenodd" d="M34.4822 19.9822C35.4585 19.0059 37.0415 19.0059 38.0178 19.9822L60.5178 42.4822C61.4941 43.4585 61.4941 45.0415 60.5178 46.0178C59.5415 46.9941 57.9585 46.9941 56.9822 46.0178L34.4822 23.5178C33.5059 22.5415 33.5059 20.9585 34.4822 19.9822Z" fill="currentColor"/>
<path id="Vector (Stroke)_8" fill-rule="evenodd" clip-rule="evenodd" d="M19.4822 34.9822C20.4585 34.0059 22.0415 34.0059 23.0178 34.9822L45.5178 57.4822C46.4941 58.4585 46.4941 60.0415 45.5178 61.0178C44.5415 61.9941 42.9585 61.9941 41.9822 61.0178L19.4822 38.5178C18.5059 37.5415 18.5059 35.9585 19.4822 34.9822Z" fill="currentColor"/>
</g>
</svg>
