<svg xmlns="http://www.w3.org/2000/svg" width="12" height="12" viewBox="0 0 12 12" fill="none">
  <path d="M10.5 8.25C10.5 8.34946 10.4605 8.44484 10.3902 8.51517C10.3198 8.58549 10.2245 8.625 10.125 8.625H6.375V11.25C6.375 11.3495 6.33549 11.4448 6.26517 11.5152C6.19484 11.5855 6.09946 11.625 6 11.625C5.90054 11.625 5.80516 11.5855 5.73484 11.5152C5.66451 11.4448 5.625 11.3495 5.625 11.25V8.625H1.875C1.77554 8.625 1.68016 8.58549 1.60984 8.51517C1.53951 8.44484 1.5 8.34946 1.5 8.25C1.5 8.15054 1.53951 8.05516 1.60984 7.98483C1.68016 7.91451 1.77554 7.875 1.875 7.875H2.31094L3.30469 2.25H3C2.90054 2.25 2.80516 2.21049 2.73484 2.14016C2.66451 2.06984 2.625 1.97446 2.625 1.875C2.625 1.77554 2.66451 1.68016 2.73484 1.60984C2.80516 1.53951 2.90054 1.5 3 1.5H9C9.09946 1.5 9.19484 1.53951 9.26517 1.60984C9.33549 1.68016 9.375 1.77554 9.375 1.875C9.375 1.97446 9.33549 2.06984 9.26517 2.14016C9.19484 2.21049 9.09946 2.25 9 2.25H8.69531L9.68906 7.875H10.125C10.2245 7.875 10.3198 7.91451 10.3902 7.98483C10.4605 8.05516 10.5 8.15054 10.5 8.25Z" fill="currentColor"/>
</svg>