<svg width="20" height="20" viewBox="0 0 20 20" fill="none" xmlns="http://www.w3.org/2000/svg">
<g id="readiness">
<circle id="Ellipse 52" cx="10" cy="10" r="10" fill="currentColor"/>
<g id="HourglassHigh">
<g id="HourglassHigh_2">
<path id="Vector" d="M13.375 7.54375V5.875C13.375 5.67609 13.296 5.48532 13.1553 5.34467C13.0147 5.20402 12.8239 5.125 12.625 5.125H7.375C7.17609 5.125 6.98532 5.20402 6.84467 5.34467C6.70402 5.48532 6.625 5.67609 6.625 5.875V7.5625C6.62536 7.67887 6.65263 7.79358 6.70467 7.89766C6.75671 8.00175 6.83212 8.09239 6.925 8.1625L9.37656 10L6.925 11.8375C6.83212 11.9076 6.75671 11.9983 6.70467 12.1023C6.65263 12.2064 6.62536 12.3211 6.625 12.4375V14.125C6.625 14.3239 6.70402 14.5147 6.84467 14.6553C6.98532 14.796 7.17609 14.875 7.375 14.875H12.625C12.8239 14.875 13.0147 14.796 13.1553 14.6553C13.296 14.5147 13.375 14.3239 13.375 14.125V12.4562C13.3746 12.3399 13.3474 12.2252 13.2953 12.1211C13.2433 12.017 13.1679 11.9264 13.075 11.8563L10.6234 10L13.075 8.14375C13.1679 8.07364 13.2433 7.983 13.2953 7.87891C13.3474 7.77483 13.3746 7.66012 13.375 7.54375ZM12.625 5.875V7H7.375V5.875H12.625ZM12.625 14.125H7.375V12.4375L10 10.4688L12.625 12.4562V14.125Z" fill="white"/>
</g>
</g>
</g>
</svg>
