<svg width="16" height="17" viewBox="0 0 16 17" fill="none" xmlns="http://www.w3.org/2000/svg">
<path fill-rule="evenodd" clip-rule="evenodd" d="M12.1464 2.64645C12.3417 2.45118 12.6583 2.45118 12.8536 2.64645L14.3536 4.14645C14.5488 4.34171 14.5488 4.65829 14.3536 4.85355L12.8536 6.35355C12.6583 6.54882 12.3417 6.54882 12.1464 6.35355C11.9512 6.15829 11.9512 5.84171 12.1464 5.64645L13.2929 4.5L12.1464 3.35355C11.9512 3.15829 11.9512 2.84171 12.1464 2.64645Z" fill="currentColor"/>
<path fill-rule="evenodd" clip-rule="evenodd" d="M5.99922 4L6 4L14 4C14.2761 4 14.5 4.22386 14.5 4.5C14.5 4.77614 14.2761 5 14 5H6.00041C5.07252 5.00154 4.18308 5.37083 3.52695 6.02695C2.87074 6.68316 2.50145 7.57276 2.5 8.50078C2.49957 8.77692 2.27536 9.00043 1.99922 9C1.72308 8.99957 1.49957 8.77536 1.5 8.49922C1.50186 7.30652 1.97648 6.16321 2.81985 5.31985C3.66321 4.47648 4.80652 4.00186 5.99922 4Z" fill="currentColor"/>
<path fill-rule="evenodd" clip-rule="evenodd" d="M3.85355 10.6464C4.04882 10.8417 4.04882 11.1583 3.85355 11.3536L2.70711 12.5L3.85355 13.6464C4.04882 13.8417 4.04882 14.1583 3.85355 14.3536C3.65829 14.5488 3.34171 14.5488 3.14645 14.3536L1.64645 12.8536C1.45118 12.6583 1.45118 12.3417 1.64645 12.1464L3.14645 10.6464C3.34171 10.4512 3.65829 10.4512 3.85355 10.6464Z" fill="currentColor"/>
<path fill-rule="evenodd" clip-rule="evenodd" d="M14.0008 8C14.2769 8.00043 14.5004 8.22464 14.5 8.50078C14.4981 9.69348 14.0235 10.8368 13.1802 11.6802C12.3368 12.5235 11.1935 12.9981 10.0008 13L2 13C1.72386 13 1.5 12.7761 1.5 12.5C1.5 12.2239 1.72386 12 2 12H9.99966C10.9275 11.9984 11.8169 11.6292 12.473 10.973C13.1293 10.3168 13.4986 9.42724 13.5 8.49922C13.5004 8.22308 13.7246 7.99957 14.0008 8Z" fill="currentColor"/>
</svg>
