<svg width="80" height="80" viewBox="0 0 80 80" fill="none" xmlns="http://www.w3.org/2000/svg">
<g clip-path="url(#clip0_2858_122990)">
<path fill-rule="evenodd" clip-rule="evenodd" d="M12.5 60C13.8807 60 15 61.1193 15 62.5V65H17.5C18.8807 65 20 66.1193 20 67.5C20 68.8807 18.8807 70 17.5 70H15C13.6739 70 12.4022 69.4732 11.4645 68.5355C10.5268 67.5979 10 66.3261 10 65V62.5C10 61.1193 11.1193 60 12.5 60Z" fill="currentColor"/>
<path fill-rule="evenodd" clip-rule="evenodd" d="M25 27.5C25 26.1193 26.1193 25 27.5 25H35C36.3807 25 37.5 26.1193 37.5 27.5C37.5 28.8807 36.3807 30 35 30H27.5C26.1193 30 25 28.8807 25 27.5Z" fill="currentColor"/>
<path fill-rule="evenodd" clip-rule="evenodd" d="M27.5 67.5C27.5 66.1193 28.6193 65 30 65H35C36.3807 65 37.5 66.1193 37.5 67.5C37.5 68.8807 36.3807 70 35 70H30C28.6193 70 27.5 68.8807 27.5 67.5Z" fill="currentColor"/>
<path fill-rule="evenodd" clip-rule="evenodd" d="M52.5 42.5C53.8807 42.5 55 43.6193 55 45V52.5C55 53.8807 53.8807 55 52.5 55C51.1193 55 50 53.8807 50 52.5V45C50 43.6193 51.1193 42.5 52.5 42.5Z" fill="currentColor"/>
<path fill-rule="evenodd" clip-rule="evenodd" d="M12.5 42.5C13.8807 42.5 15 43.6193 15 45V50C15 51.3807 13.8807 52.5 12.5 52.5C11.1193 52.5 10 51.3807 10 50V45C10 43.6193 11.1193 42.5 12.5 42.5Z" fill="currentColor"/>
<path fill-rule="evenodd" clip-rule="evenodd" d="M52.5 60C53.8807 60 55 61.1193 55 62.5V65C55 66.3261 54.4732 67.5978 53.5355 68.5355C52.5978 69.4732 51.3261 70 50 70H47.5C46.1193 70 45 68.8807 45 67.5C45 66.1193 46.1193 65 47.5 65H50V62.5C50 61.1193 51.1193 60 52.5 60Z" fill="currentColor"/>
<path fill-rule="evenodd" clip-rule="evenodd" d="M45 27.5C45 26.1193 46.1193 25 47.5 25H50C51.3261 25 52.5979 25.5268 53.5355 26.4645C54.4732 27.4022 55 28.6739 55 30V32.5C55 33.8807 53.8807 35 52.5 35C51.1193 35 50 33.8807 50 32.5L50 30L47.5 30C46.1193 30 45 28.8807 45 27.5Z" fill="currentColor"/>
<path fill-rule="evenodd" clip-rule="evenodd" d="M11.4645 26.4645C12.4021 25.5268 13.6739 25 15 25H17.5C18.8807 25 20 26.1193 20 27.5C20 28.8807 18.8807 30 17.5 30L15 30L15 32.5C15 33.8807 13.8807 35 12.5 35C11.1193 35 10 33.8807 10 32.5V30C10 28.6739 10.5268 27.4021 11.4645 26.4645Z" fill="currentColor"/>
<path fill-rule="evenodd" clip-rule="evenodd" d="M26.4645 11.4645C27.4021 10.5268 28.6739 10 30 10H65C66.3261 10 67.5979 10.5268 68.5355 11.4645C69.4732 12.4022 70 13.6739 70 15V50C70 51.3261 69.4732 52.5978 68.5355 53.5355C67.5978 54.4732 66.3261 55 65 55H52.5C51.1193 55 50 53.8807 50 52.5C50 51.1193 51.1193 50 52.5 50H65V15H30L30 27.5C30 28.8807 28.8807 30 27.5 30C26.1193 30 25 28.8807 25 27.5V15C25 13.6739 25.5268 12.4021 26.4645 11.4645Z" fill="currentColor"/>
</g>
<defs>
<clipPath id="clip0_2858_122990">
<rect width="80" height="80" fill="white"/>
</clipPath>
</defs>
</svg>
