<svg viewBox="0 0 16 17" fill="none" xmlns="http://www.w3.org/2000/svg">
<g id="SignOut">
<path id="Vector (Stroke)" fill-rule="evenodd" clip-rule="evenodd" d="M10.5214 5.52145C10.7167 5.32618 11.0333 5.32618 11.2286 5.52145L13.8536 8.14645C14.0488 8.34171 14.0488 8.65829 13.8536 8.85355L11.2286 11.4786C11.0333 11.6738 10.7167 11.6738 10.5214 11.4786C10.3262 11.2833 10.3262 10.9667 10.5214 10.7714L12.7929 8.5L10.5214 6.22855C10.3262 6.03329 10.3262 5.71671 10.5214 5.52145Z" fill="currentColor"/>
<path id="Vector (Stroke)_2" fill-rule="evenodd" clip-rule="evenodd" d="M6 8.5C6 8.22386 6.22386 8 6.5 8H13.5C13.7761 8 14 8.22386 14 8.5C14 8.77614 13.7761 9 13.5 9H6.5C6.22386 9 6 8.77614 6 8.5Z" fill="currentColor"/>
<path id="Vector (Stroke)_3" fill-rule="evenodd" clip-rule="evenodd" d="M2.29289 2.79289C2.48043 2.60536 2.73478 2.5 3 2.5H6.5C6.77614 2.5 7 2.72386 7 3C7 3.27614 6.77614 3.5 6.5 3.5L3 3.5L3 13.5H6.5C6.77614 13.5 7 13.7239 7 14C7 14.2761 6.77614 14.5 6.5 14.5H3C2.73478 14.5 2.48043 14.3946 2.29289 14.2071C2.10536 14.0196 2 13.7652 2 13.5V3.5C2 3.23478 2.10536 2.98043 2.29289 2.79289Z" fill="currentColor"/>
</g>
</svg>
