<svg viewBox="0 0 16 17" fill="none" xmlns="http://www.w3.org/2000/svg">
<g id="SlidersHorizontal">
<path id="Vector (Stroke)" fill-rule="evenodd" clip-rule="evenodd" d="M2 11.25C2 10.9739 2.22386 10.75 2.5 10.75H9.25C9.52614 10.75 9.75 10.9739 9.75 11.25C9.75 11.5261 9.52614 11.75 9.25 11.75H2.5C2.22386 11.75 2 11.5261 2 11.25Z" fill="currentColor"/>
<path id="Vector (Stroke)_2" fill-rule="evenodd" clip-rule="evenodd" d="M11.25 11.25C11.25 10.9739 11.4739 10.75 11.75 10.75H13.5C13.7761 10.75 14 10.9739 14 11.25C14 11.5261 13.7761 11.75 13.5 11.75H11.75C11.4739 11.75 11.25 11.5261 11.25 11.25Z" fill="currentColor"/>
<path id="Vector (Stroke)_3" fill-rule="evenodd" clip-rule="evenodd" d="M10.5 10.5C10.0858 10.5 9.75 10.8358 9.75 11.25C9.75 11.6642 10.0858 12 10.5 12C10.9142 12 11.25 11.6642 11.25 11.25C11.25 10.8358 10.9142 10.5 10.5 10.5ZM8.75 11.25C8.75 10.2835 9.5335 9.5 10.5 9.5C11.4665 9.5 12.25 10.2835 12.25 11.25C12.25 12.2165 11.4665 13 10.5 13C9.5335 13 8.75 12.2165 8.75 11.25Z" fill="currentColor"/>
<path id="Vector (Stroke)_4" fill-rule="evenodd" clip-rule="evenodd" d="M2 5.75C2 5.47386 2.22386 5.25 2.5 5.25H5.25C5.52614 5.25 5.75 5.47386 5.75 5.75C5.75 6.02614 5.52614 6.25 5.25 6.25H2.5C2.22386 6.25 2 6.02614 2 5.75Z" fill="currentColor"/>
<path id="Vector (Stroke)_5" fill-rule="evenodd" clip-rule="evenodd" d="M7.25 5.75C7.25 5.47386 7.47386 5.25 7.75 5.25H13.5C13.7761 5.25 14 5.47386 14 5.75C14 6.02614 13.7761 6.25 13.5 6.25H7.75C7.47386 6.25 7.25 6.02614 7.25 5.75Z" fill="currentColor"/>
<path id="Vector (Stroke)_6" fill-rule="evenodd" clip-rule="evenodd" d="M6.5 5C6.08579 5 5.75 5.33579 5.75 5.75C5.75 6.16421 6.08579 6.5 6.5 6.5C6.91421 6.5 7.25 6.16421 7.25 5.75C7.25 5.33579 6.91421 5 6.5 5ZM4.75 5.75C4.75 4.7835 5.5335 4 6.5 4C7.4665 4 8.25 4.7835 8.25 5.75C8.25 6.7165 7.4665 7.5 6.5 7.5C5.5335 7.5 4.75 6.7165 4.75 5.75Z" fill="currentColor"/>
</g>
</svg>
