<svg width="16" height="17" viewBox="0 0 16 17" fill="none" xmlns="http://www.w3.org/2000/svg">
<g id="StackSimple">
<path id="Vector (Stroke)" fill-rule="evenodd" clip-rule="evenodd" d="M7.75193 2.56588C7.90565 2.47804 8.09435 2.47804 8.24807 2.56588L15.2481 6.56588C15.4039 6.6549 15.5 6.82057 15.5 7C15.5 7.17943 15.4039 7.3451 15.2481 7.43412L8.24807 11.4341C8.09435 11.522 7.90565 11.522 7.75193 11.4341L0.751931 7.43412C0.596143 7.3451 0.5 7.17943 0.5 7C0.5 6.82057 0.596143 6.6549 0.751931 6.56588L7.75193 2.56588ZM2.00778 7L8 10.4241L13.9922 7L8 3.57588L2.00778 7Z" fill="currentColor"/>
<path id="Vector (Stroke)_2" fill-rule="evenodd" clip-rule="evenodd" d="M0.565964 9.25189C0.702969 9.01214 1.0084 8.92884 1.24816 9.06584L8.00009 12.9241L14.752 9.06584C14.9918 8.92884 15.2972 9.01214 15.4342 9.25189C15.5712 9.49165 15.4879 9.79708 15.2482 9.93409L8.24815 13.9341C8.09444 14.0219 7.90573 14.0219 7.75202 13.9341L0.752016 9.93409C0.512257 9.79708 0.428959 9.49165 0.565964 9.25189Z" fill="currentColor"/>
</g>
</svg>
