<svg xmlns="http://www.w3.org/2000/svg" width="16" height="17" viewBox="0 0 16 17" fill="none">
  <path fill-rule="evenodd" clip-rule="evenodd" d="M1.5 4C1.5 3.72386 1.72386 3.5 2 3.5H14C14.2761 3.5 14.5 3.72386 14.5 4V12.5C14.5 12.7652 14.3946 13.0196 14.2071 13.2071C14.0196 13.3946 13.7652 13.5 13.5 13.5H2.5C2.23478 13.5 1.98043 13.3946 1.79289 13.2071C1.60536 13.0196 1.5 12.7652 1.5 12.5V4ZM2.5 4.5V12.5H13.5V4.5H2.5Z" fill="currentColor"/>
  <path fill-rule="evenodd" clip-rule="evenodd" d="M1.5 7C1.5 6.72386 1.72386 6.5 2 6.5H14C14.2761 6.5 14.5 6.72386 14.5 7C14.5 7.27614 14.2761 7.5 14 7.5H2C1.72386 7.5 1.5 7.27614 1.5 7Z" fill="currentColor"/>
  <path fill-rule="evenodd" clip-rule="evenodd" d="M1.5 10C1.5 9.72386 1.72386 9.5 2 9.5H14C14.2761 9.5 14.5 9.72386 14.5 10C14.5 10.2761 14.2761 10.5 14 10.5H2C1.72386 10.5 1.5 10.2761 1.5 10Z" fill="currentColor"/>
  <path fill-rule="evenodd" clip-rule="evenodd" d="M5.5 6.5C5.77614 6.5 6 6.72386 6 7V13C6 13.2761 5.77614 13.5 5.5 13.5C5.22386 13.5 5 13.2761 5 13V7C5 6.72386 5.22386 6.5 5.5 6.5Z" fill="currentColor"/>
</svg>