<svg  viewBox="0 0 16 17" fill="none" xmlns="http://www.w3.org/2000/svg">
<g id="TreeStructure">
<path id="Vector (Stroke)" fill-rule="evenodd" clip-rule="evenodd" d="M1 7.25C1 6.69772 1.44772 6.25 2 6.25H4.5C5.05228 6.25 5.5 6.69772 5.5 7.25V9.75C5.5 10.3023 5.05228 10.75 4.5 10.75H2C1.44772 10.75 1 10.3023 1 9.75V7.25ZM4.5 7.25H2V9.75H4.5V7.25Z" fill="currentColor"/>
<path id="Vector (Stroke)_2" fill-rule="evenodd" clip-rule="evenodd" d="M9.5 3.5C9.5 2.94772 9.94772 2.5 10.5 2.5H13.5C14.0523 2.5 14.5 2.94772 14.5 3.5V6.5C14.5 7.05228 14.0523 7.5 13.5 7.5H10.5C9.94772 7.5 9.5 7.05228 9.5 6.5V3.5ZM13.5 3.5H10.5V6.5H13.5V3.5Z" fill="currentColor"/>
<path id="Vector (Stroke)_3" fill-rule="evenodd" clip-rule="evenodd" d="M9.5 10.5C9.5 9.94772 9.94772 9.5 10.5 9.5H13.5C14.0523 9.5 14.5 9.94772 14.5 10.5V13.5C14.5 14.0523 14.0523 14.5 13.5 14.5H10.5C9.94772 14.5 9.5 14.0523 9.5 13.5V10.5ZM13.5 10.5H10.5V13.5H13.5V10.5Z" fill="currentColor"/>
<path id="Vector (Stroke)_4" fill-rule="evenodd" clip-rule="evenodd" d="M4.5 8.5C4.5 8.22386 4.72386 8 5 8H7.5C7.77614 8 8 8.22386 8 8.5C8 8.77614 7.77614 9 7.5 9H5C4.72386 9 4.5 8.77614 4.5 8.5Z" fill="currentColor"/>
<path id="Vector (Stroke)_5" fill-rule="evenodd" clip-rule="evenodd" d="M8.9979 5.5C8.8667 5.49945 8.73669 5.52488 8.61537 5.57484C8.49405 5.62479 8.38382 5.69828 8.29105 5.79105C8.19828 5.88382 8.12479 5.99405 8.07484 6.11537C8.02488 6.23669 7.99945 6.3667 8 6.4979L8 6.5L8 10.5021C7.99945 10.6333 8.02488 10.7633 8.07484 10.8846C8.12479 11.0059 8.19828 11.1162 8.29105 11.209C8.38382 11.3017 8.49405 11.3752 8.61537 11.4252C8.73669 11.4751 8.8667 11.5006 8.9979 11.5L9 11.5L10 11.5C10.2761 11.5 10.5 11.7239 10.5 12C10.5 12.2761 10.2761 12.5 10 12.5H9.001M7 6.50098V10.499ZM9.00098 4.5H10C10.2761 4.5 10.5 4.72386 10.5 5C10.5 5.27614 10.2761 5.5 10 5.5L8.9979 5.5" fill="currentColor"/>
</g>
</svg>
