<svg width="80" height="80" viewBox="0 0 80 80" fill="none" xmlns="http://www.w3.org/2000/svg">
<path fill-rule="evenodd" clip-rule="evenodd" d="M32.5 67.5C32.5 66.1193 33.6193 65 35 65H45C46.3807 65 47.5 66.1193 47.5 67.5C47.5 68.8807 46.3807 70 45 70H35C33.6193 70 32.5 68.8807 32.5 67.5Z" fill="currentColor"/>
<path fill-rule="evenodd" clip-rule="evenodd" d="M12.5 32.5C13.8807 32.5 15 33.6193 15 35V45C15 46.3807 13.8807 47.5 12.5 47.5C11.1193 47.5 10 46.3807 10 45V35C10 33.6193 11.1193 32.5 12.5 32.5Z" fill="currentColor"/>
<path fill-rule="evenodd" clip-rule="evenodd" d="M12.5 55C13.8807 55 15 56.1193 15 57.5V65H22.5C23.8807 65 25 66.1193 25 67.5C25 68.8807 23.8807 70 22.5 70H15C13.6739 70 12.4022 69.4732 11.4645 68.5355C10.5268 67.5979 10 66.3261 10 65V57.5C10 56.1193 11.1193 55 12.5 55Z" fill="currentColor"/>
<path fill-rule="evenodd" clip-rule="evenodd" d="M11.4645 11.4645C12.4021 10.5268 13.6739 10 15 10H65C66.3261 10 67.5979 10.5268 68.5355 11.4645C69.4732 12.4022 70 13.6739 70 15V65C70 66.3261 69.4732 67.5978 68.5355 68.5355C67.5978 69.4732 66.3261 70 65 70H57.5C56.1193 70 55 68.8807 55 67.5C55 66.1193 56.1193 65 57.5 65H65V15L15 15L15 22.5C15 23.8807 13.8807 25 12.5 25C11.1193 25 10 23.8807 10 22.5V15C10 13.6739 10.5268 12.4021 11.4645 11.4645Z" fill="currentColor"/>
<path fill-rule="evenodd" clip-rule="evenodd" d="M11.451 11.451C12.4273 10.4747 14.0102 10.4747 14.9865 11.451L68.549 65.0135C69.5253 65.9898 69.5253 67.5727 68.549 68.549C67.5727 69.5253 65.9898 69.5253 65.0135 68.549L11.451 14.9865C10.4747 14.0102 10.4747 12.4273 11.451 11.451Z" fill="currentColor"/>
</svg>
