<svg width="48" height="48" viewBox="0 0 48 48" fill="none" xmlns="http://www.w3.org/2000/svg">
<g clip-path="url(#clip0_1071_38507)">
<path d="M40.5 9H7.5C6.67157 9 6 9.67157 6 10.5V37.5C6 38.3284 6.67157 39 7.5 39H40.5C41.3284 39 42 38.3284 42 37.5V10.5C42 9.67157 41.3284 9 40.5 9Z" stroke="currentColor" stroke-width="2" stroke-linecap="round" stroke-linejoin="round"/>
<path d="M6 31.4998L15.4313 22.0686C15.5708 21.9269 15.7372 21.8143 15.9207 21.7375C16.1042 21.6607 16.3011 21.6211 16.5 21.6211C16.6989 21.6211 16.8958 21.6607 17.0793 21.7375C17.2628 21.8143 17.4292 21.9269 17.5687 22.0686L25.9313 30.4311C26.0708 30.5728 26.2372 30.6854 26.4207 30.7622C26.6042 30.839 26.8011 30.8786 27 30.8786C27.1989 30.8786 27.3958 30.839 27.5793 30.7622C27.7628 30.6854 27.9292 30.5728 28.0687 30.4311L31.9313 26.5686C32.0708 26.4269 32.2372 26.3143 32.4207 26.2375C32.6042 26.1607 32.8011 26.1211 33 26.1211C33.1989 26.1211 33.3958 26.1607 33.5793 26.2375C33.7628 26.3143 33.9292 26.4269 34.0687 26.5686L42 34.4998" stroke="currentColor" stroke-width="2" stroke-linecap="round" stroke-linejoin="round"/>
<path d="M29.25 21C30.4926 21 31.5 19.9926 31.5 18.75C31.5 17.5074 30.4926 16.5 29.25 16.5C28.0074 16.5 27 17.5074 27 18.75C27 19.9926 28.0074 21 29.25 21Z" fill="currentColor"/>
</g>
<defs>
<clipPath id="clip0_1071_38507">
<rect width="48" height="48" fill="none"/>
</clipPath>
</defs>
</svg>
