<svg viewBox="0 0 16 17" fill="none" xmlns="http://www.w3.org/2000/svg">
<g id="User">
<path id="Vector (Stroke)" fill-rule="evenodd" clip-rule="evenodd" d="M8 3C6.067 3 4.5 4.567 4.5 6.5C4.5 8.433 6.067 10 8 10C9.933 10 11.5 8.433 11.5 6.5C11.5 4.567 9.933 3 8 3ZM3.5 6.5C3.5 4.01472 5.51472 2 8 2C10.4853 2 12.5 4.01472 12.5 6.5C12.5 8.98528 10.4853 11 8 11C5.51472 11 3.5 8.98528 3.5 6.5Z" fill="currentColor"/>
<path id="Vector (Stroke)_2" fill-rule="evenodd" clip-rule="evenodd" d="M8.00008 10.999C6.85899 10.999 5.73801 11.2994 4.74982 11.87C3.76164 12.4406 2.94107 13.2613 2.37062 14.2495C2.23257 14.4887 1.92678 14.5707 1.68762 14.4326C1.44846 14.2946 1.3665 13.9888 1.50455 13.7496C2.16276 12.6093 3.10957 11.6624 4.24978 11.004C5.39 10.3456 6.68344 9.99902 8.00008 9.99902C9.31673 9.99902 10.6102 10.3456 11.7504 11.004C12.8906 11.6624 13.8374 12.6093 14.4956 13.7496C14.6337 13.9888 14.5517 14.2946 14.3125 14.4326C14.0734 14.5707 13.7676 14.4887 13.6295 14.2495C13.0591 13.2613 12.2385 12.4406 11.2503 11.87C10.2622 11.2994 9.14117 10.999 8.00008 10.999Z" fill="currentColor"/>
</g>
</svg>
