<svg viewBox="0 0 16 17" fill="none" xmlns="http://www.w3.org/2000/svg">
<g id="UserGear">
<path id="Vector (Stroke)" fill-rule="evenodd" clip-rule="evenodd" d="M6.75 3.5C4.95507 3.5 3.5 4.95507 3.5 6.75C3.5 8.54493 4.95507 10 6.75 10C8.54493 10 10 8.54493 10 6.75C10 4.95507 8.54493 3.5 6.75 3.5ZM2.5 6.75C2.5 4.40279 4.40279 2.5 6.75 2.5C9.09721 2.5 11 4.40279 11 6.75C11 9.09721 9.09721 11 6.75 11C4.40279 11 2.5 9.09721 2.5 6.75Z" fill="currentColor"/>
<path id="Vector (Stroke)_2" fill-rule="evenodd" clip-rule="evenodd" d="M6.74996 10.999C5.80076 10.999 4.86308 11.2069 4.00282 11.6081C3.14256 12.0092 2.3806 12.594 1.7705 13.3211C1.59301 13.5327 1.27763 13.5603 1.06609 13.3828C0.85454 13.2053 0.826935 12.8899 1.00443 12.6784C1.70839 11.8393 2.58758 11.1647 3.58018 10.7018C4.57279 10.2389 5.65473 9.99902 6.74996 9.99902C7.84519 9.99902 8.92714 10.2389 9.91974 10.7018C10.9123 11.1647 11.7915 11.8393 12.4955 12.6784C12.673 12.8899 12.6454 13.2053 12.4338 13.3828C12.2223 13.5603 11.9069 13.5327 11.7294 13.3211C11.1193 12.594 10.3574 12.0092 9.4971 11.6081C8.63685 11.2069 7.69916 10.999 6.74996 10.999Z" fill="currentColor"/>
<path id="Vector (Stroke)_3" fill-rule="evenodd" clip-rule="evenodd" d="M13.75 8.5C13.4739 8.5 13.25 8.72386 13.25 9C13.25 9.27614 13.4739 9.5 13.75 9.5C14.0261 9.5 14.25 9.27614 14.25 9C14.25 8.72386 14.0261 8.5 13.75 8.5ZM12.25 9C12.25 8.17157 12.9216 7.5 13.75 7.5C14.5784 7.5 15.25 8.17157 15.25 9C15.25 9.82843 14.5784 10.5 13.75 10.5C12.9216 10.5 12.25 9.82843 12.25 9Z" fill="currentColor"/>
<path id="Vector (Stroke)_4" fill-rule="evenodd" clip-rule="evenodd" d="M13.75 6.75C14.0261 6.75 14.25 6.97386 14.25 7.25V8C14.25 8.27614 14.0261 8.5 13.75 8.5C13.4739 8.5 13.25 8.27614 13.25 8V7.25C13.25 6.97386 13.4739 6.75 13.75 6.75Z" fill="currentColor"/>
<path id="Vector (Stroke)_5" fill-rule="evenodd" clip-rule="evenodd" d="M11.8053 7.87341C11.9443 7.6348 12.2505 7.55404 12.4891 7.69304L13.1328 8.06804C13.3714 8.20704 13.4522 8.51315 13.3132 8.75176C13.1742 8.99037 12.8681 9.07112 12.6295 8.93212L11.9857 8.55712C11.7471 8.41813 11.6663 8.11202 11.8053 7.87341Z" fill="currentColor"/>
<path id="Vector (Stroke)_6" fill-rule="evenodd" clip-rule="evenodd" d="M13.3132 9.24841C13.4522 9.48702 13.3714 9.79313 13.1328 9.93212L12.4891 10.3071C12.2505 10.4461 11.9443 10.3654 11.8053 10.1268C11.6663 9.88815 11.7471 9.58204 11.9857 9.44304L12.6295 9.06804C12.8681 8.92904 13.1742 9.0098 13.3132 9.24841Z" fill="currentColor"/>
<path id="Vector (Stroke)_7" fill-rule="evenodd" clip-rule="evenodd" d="M13.75 9.5C14.0261 9.5 14.25 9.72386 14.25 10V10.75C14.25 11.0261 14.0261 11.25 13.75 11.25C13.4739 11.25 13.25 11.0261 13.25 10.75V10C13.25 9.72386 13.4739 9.5 13.75 9.5Z" fill="currentColor"/>
<path id="Vector (Stroke)_8" fill-rule="evenodd" clip-rule="evenodd" d="M14.1867 9.24841C14.3257 9.0098 14.6318 8.92904 14.8704 9.06804L15.5142 9.44304C15.7528 9.58204 15.8335 9.88815 15.6945 10.1268C15.5555 10.3654 15.2494 10.4461 15.0108 10.3071L14.3671 9.93212C14.1284 9.79313 14.0477 9.48702 14.1867 9.24841Z" fill="currentColor"/>
<path id="Vector (Stroke)_9" fill-rule="evenodd" clip-rule="evenodd" d="M15.6945 7.87341C15.8335 8.11202 15.7528 8.41813 15.5142 8.55712L14.8704 8.93212C14.6318 9.07112 14.3257 8.99037 14.1867 8.75176C14.0477 8.51315 14.1284 8.20704 14.3671 8.06804L15.0108 7.69304C15.2494 7.55404 15.5555 7.6348 15.6945 7.87341Z" fill="currentColor"/>
</g>
</svg>
