<svg xmlns="http://www.w3.org/2000/svg" width="80" height="80" viewBox="0 0 80 80" fill="none">
  <path fill-rule="evenodd" clip-rule="evenodd" d="M40 27.5C34.4772 27.5 30 31.9772 30 37.5C30 43.0228 34.4772 47.5 40 47.5C45.5228 47.5 50 43.0228 50 37.5C50 31.9772 45.5228 27.5 40 27.5ZM25 37.5C25 29.2157 31.7157 22.5 40 22.5C48.2843 22.5 55 29.2157 55 37.5C55 45.7843 48.2843 52.5 40 52.5C31.7157 52.5 25 45.7843 25 37.5Z" fill="currentColor"/>
  <path fill-rule="evenodd" clip-rule="evenodd" d="M40 52.498C36.3067 52.498 32.6854 53.5208 29.5377 55.4529C26.3899 57.3849 23.8387 60.1509 22.1667 63.4442C21.5417 64.6753 20.037 65.1667 18.8058 64.5416C17.5747 63.9166 17.0833 62.4119 17.7084 61.1807C19.7983 57.0641 22.9874 53.6067 26.9221 51.1916C30.8567 48.7765 35.3833 47.498 40 47.498C44.6168 47.498 49.1434 48.7765 53.078 51.1916C57.0127 53.6067 60.2017 57.0641 62.2917 61.1807C62.9167 62.4119 62.4254 63.9166 61.1943 64.5416C59.9631 65.1667 58.4584 64.6753 57.8334 63.4442C56.1614 60.1509 53.6102 57.3849 50.4624 55.4529C47.3147 53.5208 43.6934 52.498 40 52.498Z" fill="currentColor"/>
  <path fill-rule="evenodd" clip-rule="evenodd" d="M60.7322 38.2322C61.7085 37.2559 63.2915 37.2559 64.2678 38.2322L70 43.9645L75.7322 38.2322C76.7085 37.2559 78.2915 37.2559 79.2678 38.2322C80.2441 39.2085 80.2441 40.7915 79.2678 41.7678L71.7678 49.2678C70.7915 50.2441 69.2085 50.2441 68.2322 49.2678L60.7322 41.7678C59.7559 40.7915 59.7559 39.2085 60.7322 38.2322Z" fill="currentColor"/>
  <path fill-rule="evenodd" clip-rule="evenodd" d="M8.23223 30.7322C9.20854 29.7559 10.7915 29.7559 11.7678 30.7322L19.2678 38.2322C20.2441 39.2085 20.2441 40.7915 19.2678 41.7678C18.2915 42.7441 16.7085 42.7441 15.7322 41.7678L10 36.0355L4.26777 41.7678C3.29146 42.7441 1.70854 42.7441 0.732233 41.7678C-0.244078 40.7915 -0.244078 39.2085 0.732233 38.2322L8.23223 30.7322Z" fill="currentColor"/>
  <path fill-rule="evenodd" clip-rule="evenodd" d="M28.6771 9.50297C35.2589 7.05662 42.4561 6.80775 49.1912 8.79361C55.9264 10.7795 61.8372 14.8932 66.039 20.5191C70.2408 26.145 72.5075 32.9805 72.4998 40.0023L69.9998 39.9995H72.4998V40.0023V47.4995C72.4998 48.8803 71.3805 49.9995 69.9998 49.9995C68.6191 49.9995 67.4998 48.8803 67.4998 47.4995V39.9968C67.5063 34.0553 65.5883 28.2715 62.033 23.5111C58.4776 18.7507 53.4762 15.2698 47.7772 13.5895C42.0782 11.9091 35.9883 12.1197 30.419 14.1897C24.8497 16.2597 20.1007 20.0777 16.8826 25.0723C16.1348 26.233 14.5877 26.5677 13.427 25.8199C12.2664 25.072 11.9317 23.5249 12.6795 22.3643C16.4826 16.4615 22.0952 11.9493 28.6771 9.50297Z" fill="currentColor"/>
  <path fill-rule="evenodd" clip-rule="evenodd" d="M10 30C11.3807 30 12.5 31.1193 12.5 32.5L12.5 40.0027C12.4935 45.9443 14.4115 51.7281 17.9669 56.4885C21.5222 61.2488 26.5237 64.7297 32.2227 66.4101C37.9216 68.0904 44.0115 67.8798 49.5808 65.8098C55.1501 63.7399 59.8992 59.9218 63.1172 54.9272C63.865 53.7665 65.4121 53.4319 66.5728 54.1797C67.7335 54.9275 68.0681 56.4746 67.3203 57.6353C63.5172 63.538 57.9046 68.0502 51.3228 70.4966C44.7409 72.9429 37.5437 73.1918 30.8086 71.2059C24.0734 69.2201 18.1626 65.1063 13.9608 59.4804C9.75933 53.8549 7.49265 47.02 7.50002 39.9987C7.50002 39.9991 7.50002 39.9982 7.50002 39.9987V32.5C7.50002 31.1193 8.61931 30 10 30Z" fill="currentColor"/>
</svg>