<svg xmlns="http://www.w3.org/2000/svg" width="16" height="17" viewBox="0 0 16 17" fill="none">
  <path d="M13.1804 9.68144C12.5373 10.3192 11.718 10.7499 10.8281 10.918C9.9381 11.0862 9.01817 10.9842 8.18667 10.6252L4.93667 14.3877C4.93042 14.4002 4.91792 14.4064 4.91167 14.4127C4.72643 14.5986 4.5063 14.7462 4.26391 14.8469C4.02152 14.9475 3.76163 14.9994 3.49917 14.9994C3.2367 14.9994 2.97681 14.9475 2.73442 14.8469C2.49203 14.7462 2.2719 14.5986 2.08667 14.4127C1.90072 14.2275 1.75317 14.0073 1.6525 13.7649C1.55182 13.5225 1.5 13.2627 1.5 13.0002C1.5 12.7377 1.55182 12.4778 1.6525 12.2354C1.75317 11.9931 1.90072 11.7729 2.08667 11.5877L2.11167 11.5627L5.87417 8.31269C5.51176 7.48711 5.4057 6.5717 5.56976 5.68513C5.73381 4.79856 6.1604 3.98171 6.79422 3.34047C7.42805 2.69923 8.23989 2.26318 9.12449 2.08884C10.0091 1.9145 10.9257 2.0099 11.7554 2.36269C11.8305 2.39422 11.8966 2.44381 11.9478 2.50706C11.9991 2.5703 12.0339 2.64524 12.0492 2.72519C12.0649 2.80572 12.0606 2.8889 12.0367 2.96738C12.0127 3.04586 11.9698 3.11723 11.9117 3.17519L9.48042 5.60644L9.71167 6.78769L10.8929 7.01894L13.3242 4.58769C13.3821 4.52961 13.4535 4.48668 13.532 4.4627C13.6105 4.43872 13.6936 4.43443 13.7742 4.45019C13.8541 4.46548 13.9291 4.5003 13.9923 4.55155C14.0555 4.6028 14.1051 4.66889 14.1367 4.74394C14.4895 5.56817 14.587 6.47928 14.4165 7.35949C14.246 8.2397 13.8154 9.04854 13.1804 9.68144Z" fill="currentColor"/>
</svg>