<svg xmlns="http://www.w3.org/2000/svg" width="16" height="16" viewBox="0 0 16 16" fill="none">
  <path d="M12.854 12.1485C12.9005 12.1949 12.9373 12.2501 12.9625 12.3108C12.9876 12.3715 13.0006 12.4365 13.0006 12.5022C13.0006 12.5679 12.9876 12.633 12.9625 12.6937C12.9373 12.7544 12.9005 12.8095 12.854 12.856C12.8076 12.9024 12.7524 12.9393 12.6917 12.9644C12.631 12.9896 12.566 13.0025 12.5003 13.0025C12.4346 13.0025 12.3695 12.9896 12.3088 12.9644C12.2481 12.9393 12.193 12.9024 12.1465 12.856L8.00028 8.70911L3.85403 12.856C3.76021 12.9498 3.63296 13.0025 3.50028 13.0025C3.3676 13.0025 3.24035 12.9498 3.14653 12.856C3.05271 12.7622 3 12.6349 3 12.5022C3 12.3695 3.05271 12.2423 3.14653 12.1485L7.2934 8.00223L3.14653 3.85598C3.05271 3.76216 3 3.63491 3 3.50223C3 3.36955 3.05271 3.2423 3.14653 3.14848C3.24035 3.05466 3.3676 3.00195 3.50028 3.00195C3.63296 3.00195 3.76021 3.05466 3.85403 3.14848L8.00028 7.29536L12.1465 3.14848C12.2403 3.05466 12.3676 3.00195 12.5003 3.00195C12.633 3.00195 12.7602 3.05466 12.854 3.14848C12.9478 3.2423 13.0006 3.36955 13.0006 3.50223C13.0006 3.63491 12.9478 3.76216 12.854 3.85598L8.70715 8.00223L12.854 12.1485Z" fill="currentColor"/>
</svg>
