<svg xmlns="http://www.w3.org/2000/svg" width="16" height="17" viewBox="0 0 16 17" fill="none">
  <path fill-rule="evenodd" clip-rule="evenodd" d="M8 3C4.96243 3 2.5 5.46243 2.5 8.5C2.5 11.5376 4.96243 14 8 14C11.0376 14 13.5 11.5376 13.5 8.5C13.5 5.46243 11.0376 3 8 3ZM1.5 8.5C1.5 4.91015 4.41015 2 8 2C11.5899 2 14.5 4.91015 14.5 8.5C14.5 12.0899 11.5899 15 8 15C4.41015 15 1.5 12.0899 1.5 8.5Z" fill="currentColor"/>
  <path fill-rule="evenodd" clip-rule="evenodd" d="M10.3536 6.14645C10.5488 6.34171 10.5488 6.65829 10.3536 6.85355L6.35355 10.8536C6.15829 11.0488 5.84171 11.0488 5.64645 10.8536C5.45118 10.6583 5.45118 10.3417 5.64645 10.1464L9.64645 6.14645C9.84171 5.95118 10.1583 5.95118 10.3536 6.14645Z" fill="currentColor"/>
  <path fill-rule="evenodd" clip-rule="evenodd" d="M5.64645 6.14645C5.84171 5.95118 6.15829 5.95118 6.35355 6.14645L10.3536 10.1464C10.5488 10.3417 10.5488 10.6583 10.3536 10.8536C10.1583 11.0488 9.84171 11.0488 9.64645 10.8536L5.64645 6.85355C5.45118 6.65829 5.45118 6.34171 5.64645 6.14645Z" fill="currentColor"/>
</svg>