<svg width="16" height="17" viewBox="0 0 16 17" fill="none" xmlns="http://www.w3.org/2000/svg">
<path d="M8 2C6.71442 2 5.45772 2.38122 4.3888 3.09545C3.31988 3.80968 2.48676 4.82484 1.99479 6.01256C1.50282 7.20028 1.37409 8.50721 1.6249 9.76809C1.8757 11.029 2.49477 12.1872 3.40381 13.0962C4.31285 14.0052 5.47104 14.6243 6.73192 14.8751C7.99279 15.1259 9.29973 14.9972 10.4874 14.5052C11.6752 14.0132 12.6903 13.1801 13.4046 12.1112C14.1188 11.0423 14.5 9.78558 14.5 8.5C14.4967 6.77711 13.8108 5.12573 12.5925 3.90746C11.3743 2.68918 9.72289 2.0033 8 2ZM10.3563 10.1438C10.4501 10.2385 10.5028 10.3666 10.5028 10.5C10.5028 10.6334 10.4501 10.7615 10.3563 10.8562C10.2607 10.9487 10.1329 11.0003 10 11.0003C9.86706 11.0003 9.73932 10.9487 9.64375 10.8562L8 9.20625L6.35625 10.8562C6.26068 10.9487 6.13294 11.0003 6 11.0003C5.86706 11.0003 5.73932 10.9487 5.64375 10.8562C5.54986 10.7615 5.49719 10.6334 5.49719 10.5C5.49719 10.3666 5.54986 10.2385 5.64375 10.1438L7.29375 8.5L5.64375 6.85625C5.56402 6.7591 5.52328 6.63577 5.52944 6.51024C5.53561 6.38472 5.58824 6.26597 5.67711 6.17711C5.76598 6.08824 5.88472 6.0356 6.01025 6.02944C6.13577 6.02327 6.2591 6.06402 6.35625 6.14375L8 7.79375L9.64375 6.14375C9.7409 6.06402 9.86423 6.02327 9.98976 6.02944C10.1153 6.0356 10.234 6.08824 10.3229 6.17711C10.4118 6.26597 10.4644 6.38472 10.4706 6.51024C10.4767 6.63577 10.436 6.7591 10.3563 6.85625L8.70625 8.5L10.3563 10.1438Z" fill="currentColor"/>
</svg>
